<svg width="257" height="45" viewBox="0 0 257 45" fill="none" xmlns="http://www.w3.org/2000/svg">
<g clip-path="url(#clip0_233_44)">
<path d="M55.423 37.0956C46.2054 37.0956 40.4639 30.5608 40.4639 21.7956C40.4639 13.1087 46.2835 6.49561 55.5011 6.49561C62.9221 6.49561 67.2575 10.3695 69.0541 16.0826H64.0938C62.5315 12.5217 59.9927 10.7217 55.462 10.7217C49.2128 10.7217 45.4633 15.6521 45.4633 21.7956C45.4633 27.9782 49.2128 32.8695 55.462 32.8695C60.2661 32.8695 62.883 30.7173 64.0938 27.5086H69.0541C67.6481 33.026 62.7658 37.0956 55.423 37.0956Z" fill="white"/>
<path d="M89.9498 36.5871H85.1066C84.9504 35.7263 84.9113 34.748 84.9113 33.7306V33.1437H84.8723C84.1302 35.1002 82.1773 37.1741 78.1153 37.1741C73.3112 37.1741 70.6162 34.2002 70.6162 30.7958C70.6162 24.5741 77.881 24.4176 80.9275 23.9089C83.7396 23.4393 84.8723 23.048 84.8723 21.248C84.8723 19.4871 83.31 18.2741 80.7712 18.2741C78.4668 18.2741 76.8264 19.5654 76.6702 21.6784H72.0223C72.2176 18.1567 74.9907 14.5176 80.6931 14.5176C87.8016 14.5176 89.5983 18.7828 89.5983 23.3611V31.5784C89.5592 33.2611 89.6764 35.4132 89.9498 36.5871ZM85.0285 24.4958C84.5208 25.7871 83.31 26.7654 79.8338 27.3915C76.8654 27.9393 75.3813 28.761 75.3813 30.6393C75.3813 32.361 76.8655 33.6132 79.3261 33.6132C82.2945 33.6132 85.0285 31.5002 85.0285 26.7263V24.4958Z" fill="white"/>
<path d="M100.496 18.2348C98.6598 18.2348 97.0584 19.3305 97.0584 20.8957C97.0584 22.9696 99.5191 23.5566 103.112 24.3392C106.862 25.1609 109.557 26.9609 109.557 30.3653C109.557 34.6305 105.456 37.0957 100.73 37.0957C96.3554 37.0957 92.2153 35.1001 91.7075 29.974H96.4726C96.8631 32.3218 98.3083 33.3783 100.847 33.3783C102.839 33.3783 104.753 32.5566 104.753 30.5609C104.753 28.4479 102.644 28.0957 99.2457 27.3131C95.8476 26.4914 92.3715 24.887 92.3715 21.0522C92.3715 17.1783 96.1601 14.5957 100.535 14.5957C105.143 14.5957 108.659 16.9435 109.088 21.5609H104.518C104.284 19.2131 102.448 18.2348 100.496 18.2348Z" fill="white"/>
<path d="M133.538 25.787C133.538 32.4783 129.476 37.174 123.813 37.174C120.142 37.174 117.759 35.2174 116.9 32.674H116.861V44.8044H111.939V15.1827H116.9V19.0566C117.72 16.7479 120.142 14.5957 123.813 14.5957C129.476 14.5957 133.538 19.174 133.538 25.787ZM128.734 25.787C128.734 21.7174 126.43 18.5087 122.68 18.5087C119.009 18.5087 116.704 21.3653 116.587 25.3175V25.787C116.587 30.0131 118.54 33.2218 122.68 33.2218C126.469 33.2218 128.734 29.974 128.734 25.787Z" fill="white"/>
<path d="M156.036 27.1566H139.592C139.944 31.0305 142.404 33.2609 145.763 33.2609C148.224 33.2609 150.216 32.3609 151.036 30.2088H155.801C154.512 34.5914 150.841 37.1348 145.841 37.1348C139.436 37.1348 135.062 32.5174 135.062 25.787C135.062 19.3305 139.631 14.5957 145.841 14.5957C153.106 14.5957 156.075 20.2305 156.114 26.2174V27.1174C156.075 27.1566 156.036 27.1566 156.036 27.1566ZM151.27 23.674C150.919 20.3088 148.966 18.3131 145.646 18.3131C142.326 18.3131 140.139 20.4261 139.631 23.674H151.27Z" fill="white"/>
<path d="M163.34 26.452V36.5867H158.536V15.1433H163.262V19.7215H163.379C164.199 16.8259 166.269 14.9085 169.628 14.752V19.565C165.605 19.6041 163.34 22.1867 163.34 26.452Z" fill="white"/>
<path d="M192.32 32.361V36.5871H173.417V6.96533H178.416V32.361H192.32Z" fill="white"/>
<path d="M212.67 36.5871H207.748C207.592 35.7262 207.553 34.7479 207.553 33.7306V33.1436H207.514C206.772 35.1001 204.819 37.174 200.718 37.174C195.914 37.174 193.219 34.161 193.219 30.7958C193.219 24.574 200.523 24.4175 203.569 23.9088C206.381 23.4392 207.514 23.0479 207.514 21.2479C207.514 19.4479 205.952 18.274 203.374 18.274C201.069 18.274 199.429 19.5653 199.273 21.7175H194.625C194.82 18.1958 197.632 14.5566 203.335 14.5566C210.443 14.5566 212.318 18.8219 212.318 23.4392V31.7349C212.279 33.261 212.357 35.4914 212.67 36.5871ZM207.67 24.4958C207.162 25.7871 205.952 26.7653 202.475 27.3914C199.507 27.9392 198.023 28.761 198.023 30.6392C198.023 32.361 199.507 33.6132 201.968 33.6132C204.936 33.6132 207.67 31.5001 207.67 26.7262V24.4958Z" fill="white"/>
<path d="M237.666 25.7871C237.666 32.5958 233.721 37.174 228.019 37.174C224.504 37.174 221.926 35.061 220.95 32.674H220.911V36.5871H215.989V6.96533H220.95V19.0566C221.809 16.7871 224.504 14.5566 228.019 14.5566C233.682 14.5566 237.666 19.0175 237.666 25.7871ZM232.784 25.7871C232.784 21.4045 230.323 18.4697 226.691 18.4697C222.981 18.4697 220.715 21.3262 220.598 25.2784V25.7479C220.598 29.974 222.902 33.1827 226.691 33.1827C230.441 33.2219 232.784 30.2088 232.784 25.7871Z" fill="white"/>
<path d="M247.626 18.2349C245.791 18.2349 244.189 19.3305 244.189 20.8958C244.189 22.9697 246.689 23.5566 250.282 24.3392C254.032 25.2001 256.805 26.961 256.805 30.4045C256.805 34.6697 252.704 37.174 247.978 37.174C243.564 37.174 239.463 35.1784 238.956 30.0523H243.721C244.111 32.4001 245.556 33.4958 248.095 33.4958C250.165 33.4958 252.04 32.6349 252.04 30.6784C252.04 28.5653 249.931 28.2132 246.494 27.4306C243.057 26.6088 239.62 25.0045 239.62 21.0914C239.62 17.1784 243.408 14.5566 247.822 14.5566C252.47 14.5566 255.946 16.9045 256.453 21.6001H251.884C251.415 19.2132 249.579 18.2349 247.626 18.2349Z" fill="white"/>
<path d="M29.7619 36.7827L19.1772 18.0001V6.10443H20.1146C21.1301 6.10443 21.9112 5.28269 21.9112 4.30443C21.9112 3.28703 21.091 2.50442 20.1146 2.50442H18.9819L19.4506 1.83921C19.6459 1.01747 19.06 0.234863 18.2008 0.234863H12.5374C11.6781 0.234863 11.0923 1.0566 11.2875 1.87834L11.7953 2.54356H10.6626C9.64712 2.54356 8.86596 3.3653 8.86596 4.34356C8.86596 5.36095 9.68618 6.14356 10.6626 6.14356H11.6V18.0392L0.976296 36.7827C0.0389104 38.4262 0.0779676 40.3827 1.01535 42.0653C1.95274 43.7088 3.67128 44.687 5.58511 44.687H25.2702C27.184 44.687 28.8635 43.7479 29.84 42.0653C30.7383 40.3827 30.7383 38.4262 29.7619 36.7827ZM29.176 41.7131C28.3167 43.1218 26.8716 43.9827 25.2312 43.9827H5.54605C3.90563 43.9827 2.38237 43.1218 1.60122 41.7131C0.741949 40.3044 0.74195 38.5436 1.56216 37.1349L12.264 18.1566V5.47834H10.6236C10.0377 5.47834 9.52994 4.96964 9.52994 4.38269C9.52994 3.79573 10.0377 3.28703 10.6236 3.28703H20.1537C20.7395 3.28703 21.2473 3.79573 21.2473 4.38269C21.2473 4.96964 20.7395 5.47834 20.1537 5.47834H18.5132V18.1566L29.215 37.1349C30.0353 38.5436 30.0353 40.3044 29.176 41.7131Z" fill="white"/>
<path d="M23.5517 32.3999C20.8958 33.5347 17.8102 33.9651 14.8028 32.1651C12.3421 30.7173 10.1549 30.326 8.28011 30.4434L3.78847 38.3869C3.28072 39.2869 3.63224 40.1086 3.78847 40.3825C3.9447 40.6956 4.49151 41.3999 5.50701 41.3999H25.1921C26.2467 41.3999 26.7544 40.6956 26.9107 40.3825C27.1059 40.0695 27.4184 39.2869 26.9107 38.3869L23.5517 32.3999Z" fill="white"/>
<path d="M13.4359 26.2958C13.475 26.2958 13.5531 26.2958 13.5922 26.2958L15.3888 28.2524C15.3498 28.4089 15.2717 28.5654 15.2717 28.7611C15.2717 29.4263 15.8185 29.9741 16.4824 29.9741C17.1464 29.9741 17.6932 29.4263 17.6932 28.7611C17.6932 28.0958 17.1464 27.548 16.4824 27.548C16.2481 27.548 15.9747 27.6654 15.7794 27.7437L14.0609 25.8263C14.0609 25.7871 14.0999 25.7089 14.0999 25.6698L15.7404 24.9263C16.0528 25.3958 16.5996 25.6306 17.1464 25.6306C18.0838 25.6306 18.904 24.8089 18.904 23.8698C18.904 22.9306 18.0838 22.1089 17.1464 22.1089C16.209 22.1089 15.3888 22.9306 15.3888 23.8698C15.3888 24.0263 15.3888 24.1828 15.4279 24.2611L13.7875 25.0045C13.6703 24.8871 13.5531 24.848 13.3969 24.848C13.0063 24.848 12.6938 25.1611 12.6938 25.5524C12.811 25.9828 13.0844 26.2958 13.4359 26.2958Z" fill="white"/>
</g>
<defs>
<clipPath id="clip0_233_44">
<rect width="257" height="45" fill="white"/>
</clipPath>
</defs>
</svg>
