<svg width="167" height="45" viewBox="0 0 167 45" fill="none" xmlns="http://www.w3.org/2000/svg">
<g clip-path="url(#clip0_233_249)">
<path d="M50.924 9.61442C51.6393 9.60478 52.3264 9.89334 52.8195 10.4106C53.3366 10.9203 53.622 11.6195 53.609 12.3447C53.6219 13.0621 53.3398 13.7531 52.8282 14.2572C52.3428 14.7691 51.6653 15.0564 50.9587 15.049C50.2378 15.059 49.5455 14.7671 49.0501 14.2442C48.5318 13.7263 48.2468 13.0201 48.2607 12.2885C48.2607 10.8173 49.4535 9.62351 50.9283 9.61875L50.924 9.61442ZM48.8246 18.7226H53.0234V36.1861H48.8246V18.7226ZM67.0861 21.4875L64.4835 24.0837C63.4251 23.0279 62.4622 22.5 61.5946 22.5C61.2032 22.4773 60.8152 22.5821 60.4885 22.7986C60.2399 22.9652 60.0904 23.2442 60.0895 23.5428C60.0908 23.7748 60.1809 23.9975 60.3411 24.1659C60.7148 24.4925 61.1379 24.7582 61.5946 24.9534L63.1345 25.7192C64.7538 26.5184 65.8672 27.3319 66.4745 28.1596C67.9229 30.2413 67.6123 33.0707 65.7458 34.7885C64.6527 35.7806 63.1879 36.2769 61.3517 36.2769C59.0567 36.3401 56.8753 35.2739 55.5219 33.4255L58.1245 30.6173C58.6108 31.1846 59.1994 31.6558 59.8596 32.0062C60.387 32.3196 60.9817 32.5021 61.5946 32.5385C62.0739 32.5625 62.5468 32.422 62.935 32.1404C63.2426 31.9322 63.4312 31.5896 63.4425 31.2187C63.4425 30.5727 62.8322 29.9436 61.612 29.3322L60.1979 28.6269C57.4912 27.2652 56.1379 25.5622 56.1379 23.5168C56.1277 22.22 56.687 20.9834 57.669 20.1332C58.7396 19.1791 60.1385 18.675 61.5729 18.7269C63.7461 18.7151 65.7939 19.7412 67.0818 21.4875H67.0861ZM86.649 22.5303L83.1528 24.4471C82.6084 23.8431 81.9456 23.3572 81.2052 23.0192C80.4869 22.7398 79.7204 22.6045 78.9496 22.6212C77.5416 22.5598 76.1679 23.0651 75.1368 24.0231C74.1626 24.9599 73.6325 26.2653 73.6794 27.6144C73.6371 28.9134 74.1457 30.1703 75.0804 31.076C76.0729 32.0093 77.4002 32.5051 78.7631 32.4519C80.6426 32.4519 82.1061 31.8128 83.1528 30.5351L86.4668 32.7981C84.671 35.126 82.1378 36.2899 78.8672 36.2899C75.9232 36.2899 73.6186 35.4245 71.953 33.6937C70.008 31.7436 69.1057 28.9904 69.5204 26.2687C69.9351 23.5471 71.6185 21.1889 74.0576 19.9038C75.5615 19.1064 77.2432 18.7001 78.9462 18.7226C80.4956 18.6977 82.0294 19.0372 83.4226 19.7135C84.7222 20.3616 85.8331 21.3317 86.6498 22.5303H86.649ZM96.9943 18.7226C98.5576 18.7181 100.094 19.1256 101.449 19.9038C104.194 21.4425 105.887 24.3433 105.873 27.4846C105.88 29.035 105.475 30.5593 104.698 31.9024C103.945 33.245 102.84 34.3579 101.501 35.1216C100.138 35.8966 98.5936 36.2968 97.0247 36.2812C94.7088 36.316 92.4831 35.3899 90.8782 33.724C89.2099 32.0915 88.289 29.8458 88.332 27.5149C88.3102 22.7034 92.1847 18.7788 97.0073 18.7226H96.9943ZM97.0637 22.6687C95.834 22.6403 94.6498 23.1343 93.8061 24.0274C92.9286 24.9633 92.4606 26.2086 92.5048 27.4889C92.4511 28.7918 92.9193 30.0622 93.8061 31.0197C94.6485 31.9141 95.8344 32.4052 97.0637 32.3697C98.3038 32.4033 99.4993 31.9054 100.347 31.0024C101.233 30.0509 101.701 28.7862 101.649 27.4889C101.699 26.1987 101.231 24.9412 100.347 23.9971C99.4924 23.1084 98.2978 22.625 97.0637 22.6687ZM108.441 19.1553H112.688V27.1947C112.634 28.292 112.742 29.3915 113.009 30.4572C113.197 31.0279 113.562 31.5247 114.05 31.8764C114.57 32.2267 115.188 32.4039 115.815 32.3827C116.447 32.4034 117.069 32.2297 117.598 31.8851C118.109 31.5245 118.49 31.0106 118.687 30.4183C118.86 29.9367 118.947 28.9082 118.947 27.3332V19.1553H123.146V26.2298C123.146 29.1462 122.915 31.1409 122.452 32.2139C121.951 33.4545 121.08 34.5115 119.958 35.2428C118.693 35.9874 117.239 36.3526 115.772 36.2942C113.936 36.2942 112.451 35.8846 111.317 35.0654C110.165 34.2177 109.325 33.0149 108.927 31.6428C108.603 30.6216 108.441 28.7753 108.441 26.1043V19.1553ZM125.927 19.1553H129.527V21.2582C129.86 20.4984 130.397 19.8454 131.08 19.3716C131.706 18.9485 132.445 18.7239 133.201 18.7269C133.796 18.7393 134.381 18.8873 134.91 19.1596L133.609 22.7683C133.236 22.5574 132.821 22.4318 132.394 22.4005C131.746 22.4005 131.2 22.8 130.754 23.599C130.309 24.3981 130.086 25.9628 130.086 28.2937V35.8529H125.918L125.927 19.1553ZM146.799 21.4875L144.197 24.0837C143.141 23.0279 142.183 22.5 141.321 22.5C140.929 22.4773 140.541 22.5821 140.215 22.7986C139.966 22.9652 139.817 23.2442 139.816 23.5428C139.817 23.7748 139.907 23.9975 140.067 24.1659C140.442 24.4876 140.865 24.7491 141.321 24.9404L142.861 25.7062C144.48 26.5054 145.593 27.3189 146.201 28.1466C147.647 30.2287 147.337 33.0577 145.472 34.7755C144.379 35.7676 142.914 36.2639 141.078 36.2639C138.776 36.3319 136.588 35.2636 135.231 33.4082L137.833 30.6C138.32 31.1673 138.908 31.6385 139.568 31.9889C140.104 32.3046 140.708 32.4857 141.33 32.5168C141.809 32.5408 142.282 32.4003 142.67 32.1188C142.958 31.9077 143.133 31.5753 143.143 31.2187C143.143 30.5727 142.532 29.9436 141.312 29.3322L139.898 28.6269C137.191 27.2652 135.838 25.5622 135.838 23.5168C135.828 22.22 136.387 20.9834 137.369 20.1332C138.44 19.1795 139.839 18.6754 141.273 18.7269C143.446 18.7151 145.494 19.7412 146.782 21.4875H146.799ZM166.748 28.7135H153.258C153.408 29.8177 153.964 30.8267 154.82 31.5433C155.739 32.2689 156.889 32.6419 158.06 32.5947C159.576 32.6176 161.036 32.0257 162.107 30.9548L165.646 32.612C164.844 33.7902 163.753 34.7435 162.476 35.3812C161.101 36.0095 159.602 36.3159 158.09 36.2769C155.465 36.2769 153.328 35.4505 151.675 33.7976C150.036 32.1555 149.146 29.9133 149.215 27.5971C149.142 25.235 150.033 22.9457 151.684 21.2495C153.301 19.5785 155.55 18.6629 157.878 18.7269C160.512 18.7269 162.658 19.5676 164.31 21.2495C165.963 22.9314 166.79 25.1537 166.787 27.9173L166.748 28.7135ZM162.549 25.412C162.283 24.4943 161.71 23.6947 160.927 23.1447C160.096 22.5619 159.101 22.259 158.086 22.2793C156.978 22.2586 155.893 22.6039 155.002 23.2615C154.318 23.8457 153.789 24.5886 153.462 25.425L162.549 25.412ZM22.4863 0C10.2714 0 -0.0131836 9.87836 -0.0131836 22.0673V44.9178L22.4819 44.8962C34.6968 44.8962 44.604 34.637 44.604 22.4524C44.604 10.2678 34.6881 0 22.4863 0Z" fill="white"/>
<path d="M33.4389 30.6821C29.5441 35.5845 22.8116 37.2244 17.0902 34.6655L8.18066 36.6991L17.2507 35.6304C23.2627 39.1439 30.9621 37.5978 35.1436 32.0373C39.3251 26.4768 38.6588 18.6715 33.5946 13.8945C37.3966 18.8662 37.3319 25.7806 33.4373 30.6787L33.4389 30.6821Z" fill="black"/>
<path d="M32.6711 28.0861C29.3107 33.3649 22.7899 35.6971 16.83 33.75L8.18066 36.701L17.0902 34.6889C23.4362 37.5482 30.923 35.2077 34.4973 29.2457C38.0715 23.2832 36.5984 15.5986 31.0718 11.3755C35.3735 15.9231 36.0341 22.8072 32.672 28.0861H32.6711Z" fill="black"/>
<path d="M10.6618 28.7351C7.58076 23.0582 8.89855 16.0053 13.8231 11.8169C18.7463 7.62797 25.9382 7.44234 31.0696 11.3764C26.1464 6.20571 18.0653 5.6735 12.5044 10.1605C6.94356 14.6475 5.77239 22.6394 9.81423 28.524L8.18326 36.7019L10.6618 28.7351Z" fill="black"/>
</g>
<defs>
<clipPath id="clip0_233_249">
<rect width="167" height="45" fill="white"/>
</clipPath>
</defs>
</svg>
