<svg width="178" height="68" viewBox="0 0 178 68" fill="none" xmlns="http://www.w3.org/2000/svg">
<path fill-rule="evenodd" clip-rule="evenodd" d="M48.2833 32.7675C48.2833 46.2399 37.64 57.1616 24.5109 57.1616C11.382 57.1616 0.73877 46.2399 0.73877 32.7675C0.73877 19.2948 11.382 8.37293 24.5109 8.37293C37.64 8.37293 48.2833 19.2948 48.2833 32.7675Z" fill="white"/>
<path d="M1.70745 38.8091C1.70745 38.8091 -0.0134936 13.37 23.3514 12.6431L21.7214 9.91748L9.04292 14.1877L5.4204 18.3669L2.25082 24.4543L0.439453 31.5409L0.982821 36.2653" fill="white"/>
<path d="M8.22884 16.1263C4.05795 20.4077 1.47696 26.319 1.47696 32.8586C1.47696 39.3968 4.05795 45.3089 8.22884 49.5895C12.4017 53.8701 18.1526 56.5115 24.5105 56.5115C30.8685 56.5115 36.6197 53.8701 40.7923 49.5895C44.9629 45.3089 47.5444 39.3968 47.5444 32.8586C47.5444 26.319 44.9629 20.4077 40.7923 16.1263C36.6197 11.8465 30.8685 9.20509 24.5105 9.20455C18.1526 9.20509 12.4017 11.8465 8.22884 16.1263ZM7.17308 50.625C2.74039 46.0771 0 39.7918 0 32.8586C0 25.9243 2.74039 19.6396 7.17308 15.0913C11.6047 10.5423 17.7393 7.72263 24.5105 7.72345C31.2817 7.72263 37.4169 10.5423 41.8477 15.0913C46.2808 19.6396 49.0216 25.9249 49.021 32.8586C49.0216 39.7918 46.2808 46.0771 41.8477 50.625C37.4169 55.1739 31.2817 57.9932 24.5105 57.9932C17.7393 57.9932 11.6047 55.1739 7.17308 50.625Z" fill="#231F20"/>
<path fill-rule="evenodd" clip-rule="evenodd" d="M34.5177 32.903L30.895 33.4481L26.0047 33.9932L22.8349 34.084L19.7559 33.9932L17.4012 33.2663L15.3183 30.995L13.6882 26.3615L13.3259 25.362L11.1525 24.6353L9.88458 22.5456L8.979 19.5474L9.97532 16.9126L12.3297 16.0949L14.2315 17.0036L15.1373 19.0023L16.2241 18.8205L16.5862 18.3664L16.2241 16.2767L16.1333 13.6418L16.6767 10.0077L16.6555 7.93191L18.3068 5.28342L21.2048 3.19369L26.2764 1.01319L31.891 1.83088L36.7813 5.37418L39.0456 9.00826L40.4944 11.6431L40.8566 18.1846L39.7699 23.8177L37.7776 28.8145L35.8758 31.4494" fill="white"/>
<path fill-rule="evenodd" clip-rule="evenodd" d="M31.4382 48.6202L18.4878 49.1654V51.3459L19.5745 58.9776L19.0311 59.6138L9.97516 56.5245L9.34105 55.4343L8.43547 45.168L6.35285 38.9898L5.8999 37.5362L13.1446 32.5393L15.4088 31.6306L17.401 34.0837L19.1217 35.6283L21.1142 36.2642L22.0197 36.5367L23.1064 41.2611L23.9215 42.2605L26.0045 41.5336L24.5554 44.3503L32.4342 48.0751L31.4382 48.6202Z" fill="black"/>
<path fill-rule="evenodd" clip-rule="evenodd" d="M9.97522 16.9122L12.3296 16.0945L14.2314 17.0033L15.1372 19.002L16.2239 18.8202L16.4956 17.7299L15.9523 15.6404L16.4956 10.6433L16.0427 7.91767L17.6728 6.00973L21.2047 3.19334L20.2085 1.83053L15.2276 4.28359L13.1447 5.91897L11.9674 8.46279L10.1562 10.9159L9.61279 13.8233L9.97522 16.9122Z" fill="black"/>
<path fill-rule="evenodd" clip-rule="evenodd" d="M13.6882 8.37191C13.6882 8.37191 15.0466 5.0104 20.4803 3.37503C25.914 1.73966 20.752 2.19374 20.752 2.19374L14.8657 4.46528L12.6015 6.73654L11.6055 8.55371L13.6882 8.37191Z" fill="#D4D4D4"/>
<path fill-rule="evenodd" clip-rule="evenodd" d="M10.9712 16.2762C10.9712 16.2762 9.06942 9.91625 16.3144 9.0078L16.0427 7.91755L11.062 9.09884L9.61279 13.8232L9.97522 16.9121L10.9712 16.2762Z" fill="#D4D4D4"/>
<path fill-rule="evenodd" clip-rule="evenodd" d="M13.8691 24.7261L15.0549 23.5734C15.0549 23.5734 15.5901 23.6358 15.6805 24.2717C15.7709 24.9079 16.0426 30.6317 19.9367 33.7209C20.2919 34.0027 17.0389 33.2663 17.0389 33.2663L14.1408 28.7237" fill="#D4D4D4"/>
<path fill-rule="evenodd" clip-rule="evenodd" d="M30.5333 22.9995C30.5333 22.9995 30.7444 20.2455 31.4836 20.4573C32.2229 20.6691 32.2229 21.4107 32.2229 21.4107C32.2229 21.4107 30.4276 22.5759 30.5333 22.9995Z" fill="#D4D4D4"/>
<path d="M38.0493 12.9147C38.0493 12.9147 36.5567 13.2308 36.4192 14.55C36.2818 15.8695 38.0493 14.8226 38.321 14.7318" fill="#D4D4D4"/>
<path d="M27.0917 13.0058C27.0917 13.0058 25.0991 13.2784 25.0991 14.5502C25.0991 15.8222 27.3634 15.7314 27.9972 15.1863" fill="#D4D4D4"/>
<path fill-rule="evenodd" clip-rule="evenodd" d="M14.775 18.9111C14.775 18.9111 11.3335 16.8213 10.9714 18.8203C10.6092 20.819 9.79392 22.2728 11.5148 24.3623L10.3375 23.999L9.25077 21.1826L8.88867 18.457L10.9714 16.2762L13.326 16.458L14.6845 17.5482L14.775 18.9111Z" fill="#D4D4D4"/>
<path fill-rule="evenodd" clip-rule="evenodd" d="M16.405 13.1875C16.405 13.1875 17.9446 5.19243 25.733 3.64782C32.1451 2.37632 35.5134 3.92038 36.7814 5.37396C36.7814 5.37396 31.076 -1.43983 25.6423 0.649636C20.2086 2.73937 16.2241 6.55524 16.3145 9.00803C16.4687 13.1859 16.405 13.1875 16.405 13.1875Z" fill="#D4D4D4"/>
<path fill-rule="evenodd" clip-rule="evenodd" d="M37.4156 6.28258C37.4156 6.28258 34.7895 6.19181 34.6987 8.55411C34.6987 8.55411 34.6985 8.91744 34.8797 9.28076C34.8797 9.28076 36.9629 6.91846 38.2306 8.19051" fill="#D4D4D4"/>
<path fill-rule="evenodd" clip-rule="evenodd" d="M25.9154 9.5269C25.9154 9.5269 25.4633 5.901 22.3819 8.009C20.3896 9.37181 20.5709 11.2797 20.933 11.6431C21.2952 12.0067 21.1967 12.7385 21.4724 12.2362C21.748 11.7338 21.6573 10.0985 22.6536 9.64437C23.6498 9.19001 25.2829 8.6825 25.9154 9.5269Z" fill="#D4D4D4"/>
<path fill-rule="evenodd" clip-rule="evenodd" d="M17.401 34.0834L8.88843 37.8993C8.88843 37.8993 12.4203 51.9818 10.6089 56.3428L9.34105 55.8887L9.25053 50.5281L6.89622 40.3526L5.8999 37.536L14.7747 31.5399L17.401 34.0834Z" fill="white"/>
<path fill-rule="evenodd" clip-rule="evenodd" d="M18.2764 41.8727L19.4841 43.351V48.8022H18.0349C18.0349 48.8022 17.854 44.9864 17.854 44.532C17.854 44.0777 18.0349 42.4423 18.0349 42.4423" fill="white"/>
<path fill-rule="evenodd" clip-rule="evenodd" d="M18.3067 49.6197L14.2314 49.8012L15.4089 50.6189L18.3067 51.0732" fill="white"/>
<path fill-rule="evenodd" clip-rule="evenodd" d="M32.2534 48.7111L35.6041 48.6203L36.4191 56.979L32.9777 57.4331L32.2534 48.7111Z" fill="black"/>
<path fill-rule="evenodd" clip-rule="evenodd" d="M33.1587 48.7114L38.2302 48.4389C38.2302 48.4389 40.3129 43.1694 40.3129 42.8968C40.3129 42.6242 42.1243 35.2651 42.1243 35.2651L38.049 30.9952L37.234 30.2682L35.0605 32.4487V40.8982L33.1587 48.7114Z" fill="black"/>
<path fill-rule="evenodd" clip-rule="evenodd" d="M35.4229 48.0756L32.2534 48.7115L32.706 51.2556C33.8833 51.8008 35.8758 50.3469 35.8758 50.3469" fill="white"/>
<path fill-rule="evenodd" clip-rule="evenodd" d="M35.5137 32.1761L41.8529 36.9004L42.0341 34.7199L37.2342 30.2681L35.5137 32.1761Z" fill="white"/>
<path fill-rule="evenodd" clip-rule="evenodd" d="M21.4495 66.6105L19.5745 58.9777L18.642 53.3458L18.4878 49.1655L26.9738 48.7123L32.2533 48.7114L31.7732 58.2519L32.5883 65.6111L32.4978 66.9739L25.6154 67.519L21.4495 66.6105Z" fill="white"/>
<path fill-rule="evenodd" clip-rule="evenodd" d="M31.0762 48.6206C31.0762 48.6206 30.6236 58.0696 31.982 64.7926C31.982 64.7926 29.2652 66.5191 25.2803 66.9731L32.8875 66.7006L33.7931 66.1555L32.7063 51.2556L32.4346 48.0753" fill="#D4D4D4"/>
<path fill-rule="evenodd" clip-rule="evenodd" d="M36.5734 56.2534L40.1053 55.254L46.8066 54.8906L47.8029 51.8017L45.9916 46.4412L43.9088 46.1686L41.0108 47.0771L38.2304 48.4391L36.7543 48.1674L35.604 48.6208" fill="white"/>
<path fill-rule="evenodd" clip-rule="evenodd" d="M36.5098 54.4348C36.5098 54.4348 38.8642 53.3448 39.2266 53.4356L38.2306 48.4385L39.4078 47.9844C39.4078 47.9844 40.2229 52.7086 40.2229 53.2538C40.2229 53.2538 45.2941 53.5263 45.747 53.5263C45.747 53.5263 46.8338 51.4367 46.5621 49.2562L47.5583 52.1635L47.6488 53.7989L46.1999 55.9794L44.5698 56.3428L41.853 56.252L40.9475 55.071L37.7777 55.5251L36.7814 55.8887" fill="#D4D4D4"/>
<path d="M32.9507 47.9854L30.9585 42.8974L28.8755 39.8992C28.8755 39.8992 29.3281 38.6272 29.9622 38.6272C30.5963 38.6272 32.0452 38.6272 32.0452 38.6272L34.0375 39.3541L33.8565 42.7157L32.9507 47.9854Z" fill="white"/>
<path fill-rule="evenodd" clip-rule="evenodd" d="M33.3403 46.2583C33.3403 46.2583 30.8044 41.3524 30.8044 40.6255C30.8044 40.6255 31.257 39.5352 31.8911 39.8078C32.5253 40.0804 33.8837 40.807 33.8837 40.807V39.0809L30.8044 38.4447L28.7217 38.7173L32.2536 47.076L32.9779 47.167" fill="#D4D4D4"/>
<path d="M22.2649 34.2668L19.7561 33.9932L17.4014 33.2663V34.0839L18.5519 35.3568L22.1743 36.9922" fill="white"/>
<path fill-rule="evenodd" clip-rule="evenodd" d="M18.2165 34.5387C18.2165 34.5387 21.0241 35.72 21.9297 35.4475L22.0198 36.5366L19.4845 35.9926L17.9448 34.9023L18.2165 34.5387Z" fill="#D4D4D4"/>
<path fill-rule="evenodd" clip-rule="evenodd" d="M36.5638 38.9365C35.0272 38.8913 33.6389 38.7081 32.4234 38.3641C32.506 37.8643 32.3514 37.3737 32.4755 37.0136C32.8143 36.7688 33.3821 36.7727 33.8943 36.7151C33.4514 36.4968 32.8293 36.4104 32.3182 36.5366C32.3063 36.1896 32.1511 35.9746 32.0571 35.7031C32.9211 35.3938 34.9606 33.3656 36.1079 34.0372C36.6546 34.3567 36.8869 36.1812 36.9292 37.0684C36.9646 37.8043 36.8627 38.5468 36.5638 38.9365Z" fill="white"/>
<path d="M36.5638 38.9365C35.0272 38.8913 33.6389 38.7081 32.4234 38.3641C32.506 37.8643 32.3514 37.3737 32.4755 37.0136C32.8143 36.7688 33.3821 36.7727 33.8943 36.7151C33.4514 36.4968 32.8293 36.4104 32.3182 36.5366C32.3063 36.1896 32.1511 35.9746 32.0571 35.7031C32.9211 35.3938 34.9606 33.3656 36.1079 34.0372C36.6546 34.3567 36.8869 36.1812 36.9292 37.0684C36.9646 37.8043 36.8627 38.5468 36.5638 38.9365Z" stroke="white" stroke-width="2.5"/>
<path fill-rule="evenodd" clip-rule="evenodd" d="M29.2156 36.4166C29.2115 36.5333 29.2066 36.6508 29.202 36.7685C28.7222 37.0847 27.9476 37.0809 27.4211 37.3466C28.1973 37.3807 28.8083 37.5682 29.337 37.8326C29.3254 38.1264 29.3142 38.42 29.3028 38.7138C28.4234 39.3178 27.62 40.2172 26.5846 40.7837C26.095 41.0515 24.3768 41.7408 23.8559 41.619C23.5612 41.5504 23.5347 41.1835 23.4169 40.8376C23.1659 40.097 22.588 38.9182 22.5376 37.8034C22.4734 36.3954 22.3318 34.0355 23.8443 34.3255C25.0645 34.5591 26.4837 35.1231 27.4285 35.6409C28.0058 35.9576 28.3397 36.349 29.2156 36.4166Z" fill="white"/>
<path d="M29.2156 36.4166C29.2115 36.5333 29.2066 36.6508 29.202 36.7685C28.7222 37.0847 27.9476 37.0809 27.4211 37.3466C28.1973 37.3807 28.8083 37.5682 29.337 37.8326C29.3254 38.1264 29.3142 38.42 29.3028 38.7138C28.4234 39.3178 27.62 40.2172 26.5846 40.7837C26.095 41.0515 24.3768 41.7408 23.8559 41.619C23.5612 41.5504 23.5347 41.1835 23.4169 40.8376C23.1659 40.097 22.588 38.9182 22.5376 37.8034C22.4734 36.3954 22.3318 34.0355 23.8443 34.3255C25.0645 34.5591 26.4837 35.1231 27.4285 35.6409C28.0058 35.9576 28.3397 36.349 29.2156 36.4166Z" stroke="white" stroke-width="2.5"/>
<path fill-rule="evenodd" clip-rule="evenodd" d="M30.0888 38.0967C29.9546 37.3297 29.7994 37.1108 29.8595 36.4417C31.8985 35.0778 32.2813 38.7844 30.0888 38.0967Z" fill="white"/>
<path d="M30.0888 38.0967C29.9546 37.3297 29.7994 37.1108 29.8595 36.4417C31.8985 35.0778 32.2813 38.7844 30.0888 38.0967Z" stroke="white" stroke-width="2.5"/>
<path fill-rule="evenodd" clip-rule="evenodd" d="M33.0414 38.7183C33.0414 38.7183 32.4073 37.8095 32.8602 37.537C33.3131 37.2644 33.766 37.5372 34.0377 37.0829C34.3093 36.6285 34.0377 36.356 34.1281 35.8108C34.2186 35.2657 34.6718 35.1747 35.1244 35.0839C35.577 34.9932 36.8452 34.8114 37.0262 35.2657L36.4828 33.6303L35.3961 33.267L31.9547 35.2657L31.7734 36.2652V38.2639" fill="white"/>
<path fill-rule="evenodd" clip-rule="evenodd" d="M23.5324 41.7168C23.4236 40.2989 23.3085 38.8829 23.1804 37.4664C22.9887 35.3514 23.6868 35.7204 25.5143 35.7204C25.7935 35.7204 27.233 36.0543 27.3359 36.2655C27.8299 37.2775 26.51 37.0527 27.9048 37.8159C29.0823 38.4599 31.1623 37.4247 30.6866 35.993C30.4204 35.6746 29.2994 35.8938 28.8976 35.6847C28.1901 35.3167 27.4826 34.9488 26.7751 34.5808C25.875 34.1123 23.7945 33.4292 22.8348 34.0839C20.4032 35.743 22.9883 39.8884 23.8558 41.6192" fill="white"/>
<path fill-rule="evenodd" clip-rule="evenodd" d="M25.9156 9.52657C23.4473 8.94983 22.2208 10.5629 21.4727 12.2358C20.8046 12.0734 21.0704 11.1619 21.2392 10.6975C21.681 9.4786 23.4615 7.85603 24.9162 8.07599C25.5423 8.17057 26.3895 8.74486 25.9156 9.52657Z" fill="#231F20"/>
<path fill-rule="evenodd" clip-rule="evenodd" d="M37.9421 12.3463C37.9809 12.3479 38.0203 12.3493 38.0592 12.3509C38.6169 13.5134 39.0997 14.7448 39.8034 15.771C39.332 16.8725 36.234 17.8472 36.2818 15.8694C36.9518 15.5756 38.1083 15.8095 38.7022 15.4342C38.3588 14.4886 37.8633 13.6838 37.9421 12.3463Z" fill="#231F20"/>
<path fill-rule="evenodd" clip-rule="evenodd" d="M27.1791 12.3769C27.7084 13.3503 27.8806 14.3729 28.6329 15.1086C28.9717 15.4397 29.6305 15.8434 29.304 16.7644C29.2276 16.9816 28.6699 17.466 28.3479 17.5611C27.1718 17.9094 24.4313 17.633 25.3593 16.162C26.332 16.2075 27.6394 16.7957 28.3664 16.0873C27.8081 15.192 26.8127 13.4206 27.1791 12.3769Z" fill="#231F20"/>
<path fill-rule="evenodd" clip-rule="evenodd" d="M37.5004 22.2693C35.7296 23.4105 33.755 24.6515 30.8534 24.3636C30.2334 23.8229 29.997 22.6195 30.5994 21.8247C30.9129 22.3655 30.7159 23.3601 31.5897 23.5097C33.2361 23.7924 35.1522 22.4993 36.3365 22.0474C37.0709 20.8053 36.2732 20.3485 35.6117 19.5491C34.2573 17.9113 32.4406 15.8812 32.5066 13.4293C33.054 13.0311 33.1013 14.0371 33.1798 14.2202C33.887 15.8807 35.6668 18.0042 36.9657 19.4254C37.2847 19.7753 37.8099 20.1111 37.8683 20.3425C38.0367 21.0155 37.43 21.8217 37.5004 22.2693Z" fill="#231F20"/>
<path fill-rule="evenodd" clip-rule="evenodd" d="M14.155 21.0679C13.6 20.7501 13.4679 19.3502 12.8162 19.3104C11.885 19.2537 12.0548 21.1265 12.0585 22.2217C11.4175 21.6379 11.3048 19.8403 11.7757 18.9171C11.239 18.6527 10.9993 19.2088 10.7017 19.4047C11.0842 16.6164 14.7674 18.1114 14.155 21.0679Z" fill="#231F20"/>
<path fill-rule="evenodd" clip-rule="evenodd" d="M38.6281 23.4306C37.8039 25.0047 36.6378 26.7382 34.219 26.7886C34.1698 26.2802 34.132 25.5067 34.2217 25.2006C36.0708 25.0224 37.2124 24.0782 38.6281 23.4306Z" fill="#231F20"/>
<path fill-rule="evenodd" clip-rule="evenodd" d="M27.0396 24.4506C28.5823 25.2645 31.4176 25.352 33.5144 25.2904C33.6269 25.7513 33.6242 26.3207 33.6285 26.8827C30.9332 27.0176 27.7463 26.3485 27.0396 24.4506Z" fill="#231F20"/>
<path fill-rule="evenodd" clip-rule="evenodd" d="M26.7469 25.9685C27.8137 28.6556 31.4803 28.3463 34.5724 28.2721C34.4363 28.621 34.1412 29.0331 33.7744 29.1822C32.7836 29.5867 30.0507 29.8936 28.6752 29.1607C27.8028 28.6954 27.2423 27.6442 26.7644 27.0279C26.5335 26.7303 25.3842 25.9701 26.7469 25.9685Z" fill="#231F20"/>
<path fill-rule="evenodd" clip-rule="evenodd" d="M37.3716 40.791C36.1197 42.9421 34.9218 45.1514 33.4365 47.0488C34.0592 45.212 34.3257 42.1377 34.4197 39.794C35.7225 39.1824 36.838 39.9316 37.3716 40.791Z" fill="white"/>
<path fill-rule="evenodd" clip-rule="evenodd" d="M44.1083 48.5225C42.7067 48.804 41.7219 50.1706 40.3545 50.0829C41.106 49.0201 42.4228 48.5721 44.1083 48.5225Z" fill="#231F20"/>
<path fill-rule="evenodd" clip-rule="evenodd" d="M44.7265 50.723C43.5841 50.8441 42.2422 51.0296 41.0835 50.934C41.632 50.0934 43.7455 50.3835 44.7265 50.723Z" fill="#231F20"/>
<path fill-rule="evenodd" clip-rule="evenodd" d="M45.1227 52.6208C43.8387 52.6487 42.2429 52.6231 41.0225 52.5203C41.7443 51.7425 44.29 52.2317 45.1227 52.6208Z" fill="#231F20"/>
<path fill-rule="evenodd" clip-rule="evenodd" d="M34.9561 57.8121C35.1403 59.4298 35.7795 61.0689 35.6994 62.8406C34.9895 63.0808 34.5817 63.2908 33.6305 63.2895C33.5634 61.7839 33.3626 59.4821 33.4227 58.0468C33.8905 58.0779 34.5803 57.7115 34.9561 57.8121Z" fill="#D4D4D4"/>
<path fill-rule="evenodd" clip-rule="evenodd" d="M32.886 33.9711C32.2413 34.3933 31.6922 34.9205 31.0731 35.3713C29.7 35.4394 28.9507 35.2759 27.9419 34.4849C27.9585 34.4214 28.0598 34.4498 28.0636 34.3718C29.5334 35.029 31.4018 34.1041 32.886 33.9711Z" fill="white"/>
<path fill-rule="evenodd" clip-rule="evenodd" d="M25.1699 44.0225C25.5738 42.267 27.1561 41.3577 28.593 40.3909C30.0761 42.2793 30.9781 44.7078 31.9714 47.0513C29.6246 46.3415 27.2267 45.19 25.1699 44.0225Z" fill="white"/>
<path fill-rule="evenodd" clip-rule="evenodd" d="M33.4226 58.0471C33.3626 59.4824 33.5633 61.7841 33.6304 63.2898C34.5816 63.2911 34.9894 63.0811 35.6993 62.8409C35.7795 61.0692 35.1402 59.4301 34.956 57.8124C34.5802 57.7118 33.8904 58.0781 33.4226 58.0471ZM18.612 49.8842C19.2392 55.6687 20.1476 60.5314 21.8138 65.6538C25.5118 66.7802 29.9698 66.8784 33.2384 65.8619C32.6382 62.9709 32.9004 59.4511 32.5497 56.3659C32.2853 54.047 32.4201 51.7138 32.0577 49.348C28.097 48.5213 22.4989 49.1547 18.612 49.8842ZM32.9942 49.3843C32.9607 51.8686 33.105 54.3192 33.2941 56.8067C34.245 56.6635 34.8902 56.5679 35.7737 56.3736C35.4869 53.9789 35.5222 51.2842 34.9378 49.1659C34.2624 49.1724 33.6677 49.158 32.9942 49.3843ZM37.8179 48.9838C37.3666 48.88 36.8412 48.9798 36.41 48.9882C36.6127 51.0134 37.1045 53.2481 37.2775 55.3738C37.9559 55.395 38.3183 55.074 38.8764 54.9661C38.9063 53.1001 38.7139 50.5293 37.8179 48.9838ZM45.1218 55.6788C46.536 55.3342 47.4252 53.5966 47.0296 51.8122C46.7642 50.6129 46.2914 48.3547 45.7856 47.5875C45.4117 47.02 44.3981 46.2771 43.5887 46.7971C42.2722 47.6429 39.9528 47.8884 38.9927 48.9122C39.4741 50.5203 39.6235 52.7291 39.8221 54.7667C41.4669 54.8696 43.4907 54.3126 44.8586 54.9037C43.9036 55.214 42.6645 55.2165 41.8394 55.6687C42.5137 55.9955 44.0924 55.9295 45.1218 55.6788ZM31.9715 47.0511C30.9783 44.7076 30.0763 42.2791 28.5931 40.3908C27.1562 41.3575 25.5739 42.2668 25.1701 44.0224C27.2268 45.1898 29.6247 46.3414 31.9715 47.0511ZM34.4199 39.7941C34.3259 42.1378 34.0594 45.2121 33.4367 47.049C34.922 45.1516 36.1199 42.9422 37.3718 40.7911C36.8382 39.9318 35.7227 39.1825 34.4199 39.7941ZM31.6444 38.8047C31.0818 38.7439 30.6041 39.4537 29.8725 39.1468C29.7049 39.3327 29.5525 39.5341 29.3816 39.7156C30.9975 41.6694 31.7319 44.4413 32.98 46.7373C33.6497 44.5318 33.5726 42.1155 33.7201 39.7083C32.7999 39.7669 32.2894 38.8734 31.6444 38.8047ZM29.8597 36.4416C29.7997 37.1107 29.9548 37.3296 30.089 38.0966C32.2815 38.7843 31.8987 35.0777 29.8597 36.4416ZM27.4284 35.6408C26.4837 35.123 25.0645 34.559 23.8442 34.3254C22.3317 34.0352 22.4734 36.3953 22.5376 37.8033C22.588 38.9181 23.1659 40.0969 23.4169 40.8375C23.5347 41.1833 23.5612 41.5502 23.8559 41.6189C24.3768 41.7407 26.095 41.0514 26.5845 40.7836C27.62 40.2171 28.4233 39.3177 29.3028 38.7137C29.3142 38.4199 29.3253 38.1263 29.337 37.8325C28.8083 37.5681 28.1973 37.3806 27.4211 37.3465C27.9476 37.0808 28.7222 37.0846 29.202 36.7684C29.2066 36.6507 29.2115 36.5332 29.2156 36.4165C28.3397 36.3489 28.0058 35.9575 27.4284 35.6408ZM18.4048 33.9965C17.6208 34.7951 20.604 35.8837 21.5538 35.9423C21.5485 35.4369 21.8409 34.9605 21.782 34.598C20.6539 34.3993 19.1713 34.5304 18.4048 33.9965ZM28.0636 34.3715C28.0598 34.4495 27.9585 34.4211 27.9419 34.4846C28.9507 35.2756 29.7 35.4391 31.0731 35.371C31.6922 34.9202 32.2413 34.393 32.886 33.9708C31.4018 34.1038 29.5334 35.0286 28.0636 34.3715ZM36.9292 37.0685C36.8868 36.1813 36.6546 34.3568 36.1079 34.0373C34.9606 33.3655 32.9211 35.3939 32.0571 35.7032C32.1511 35.9747 32.3062 36.1898 32.3182 36.5367C32.8292 36.4105 33.4514 36.4969 33.8942 36.7153C33.3821 36.7728 32.8143 36.769 32.4755 37.0137C32.3513 37.3738 32.5059 37.8644 32.4233 38.3643C33.6389 38.7082 35.0272 38.8914 36.5638 38.9366C36.8627 38.5469 36.9645 37.8044 36.9292 37.0685ZM17.0848 34.7689C16.8386 34.5928 15.173 32.4186 14.9448 32.5088C11.9308 33.7013 9.11259 35.7632 6.59422 37.7134C8.99533 42.8823 9.96459 49.215 10.1359 55.3187C12.8864 56.6093 15.3024 58.4699 19.0349 58.6642C18.603 55.5984 18.2087 52.8632 17.9635 49.9768C17.0257 49.5802 15.6802 49.9948 14.8026 49.8538C14.7951 48.7927 16.143 49.3892 16.2552 48.6756C16.3398 48.1359 15.5136 48.095 15.7826 47.2452C16.4688 47.4954 16.8291 48.0481 17.5608 48.2556C18.2294 46.7881 17.5514 44.1916 17.6478 42.9651C17.6661 42.7348 17.7624 41.6893 18.2766 41.8727C18.7317 42.0351 18.2506 44.6534 18.3005 45.8142C18.3459 46.8837 18.1718 47.9186 18.6035 48.59C22.2102 48.0975 25.8753 47.7791 29.7777 47.6717C28.9192 47.3022 27.8993 46.9524 26.7811 46.3201C26.1749 45.9773 24.2641 45.2639 24.0892 44.6863C23.8101 43.7659 24.8214 43.2756 24.9944 42.4865C23.1738 43.4827 22.8186 41.5317 22.388 40.1495C21.9977 38.8977 21.7756 37.9625 21.6799 37.2405C20.1116 36.4904 18.4347 35.7308 17.0848 34.7689ZM35.3363 32.7718C37.8475 31.5502 38.3001 37.3375 37.3158 39.2018C37.468 39.7579 37.9912 39.9707 38.2048 40.4706C36.8034 42.9891 35.247 45.3399 33.8171 47.8287C34.8807 47.1645 36.4 47.7099 37.6516 47.2127C38.1091 47.0312 38.4403 45.9804 38.7867 45.1399C39.7395 42.8272 40.7399 39.9116 41.1849 37.7047C41.2854 37.2018 41.5593 36.1061 41.4979 35.6585C41.3884 34.8572 40.3046 34.263 39.7534 33.7675C38.7378 32.8522 38.0983 32.0468 37.039 31.191C36.6094 31.8271 35.6876 32.2545 35.3363 32.7718ZM11.3418 10.4304C10.1452 11.7513 10.3957 14.2262 10.5405 15.9869C12.7034 14.6219 15.5741 16.0948 15.547 18.4165C16.5797 18.389 15.9328 17.1227 15.746 16.3069C15.1356 13.6423 16.7744 10.7474 15.8203 8.31073C13.9679 8.45165 12.446 9.21073 11.3418 10.4304ZM19.9036 2.76436C17.1947 3.53463 13.7229 5.50934 12.6098 7.95068C13.4717 7.82503 14.0701 7.38893 14.9204 7.33496C15.2417 7.31397 15.6627 7.47015 16.0321 7.37803C16.768 7.19486 17.3892 5.53932 17.9444 4.92333C18.4857 4.32178 19.1362 4.06476 19.5814 3.51636C19.8675 3.3779 20.2904 3.38744 20.3066 2.95652C20.1827 2.82351 20.0521 2.72212 19.9036 2.76436ZM34.0048 3.48883C31.1932 1.89734 26.434 0.700249 23.4432 2.19607C21.0299 3.40325 17.7677 5.40058 16.6555 7.9316C17.6945 10.374 16.3478 12.612 16.2618 15.0918C16.2162 16.4113 16.8811 17.5631 16.932 18.9995C16.5765 19.588 15.4903 19.6605 14.7383 19.6202C14.4852 18.3495 14.0422 16.9212 12.7379 16.7779C10.8923 16.5754 9.54294 18.1077 9.4591 19.709C9.35988 21.5921 10.9008 24.7133 13.0849 24.4966C13.9286 24.4129 14.1359 23.5644 15.0552 23.5731C15.5534 24.5704 14.2866 24.8836 14.1563 25.5969C14.1223 25.7812 14.2613 26.5013 14.3422 26.839C14.7389 28.4833 15.6233 30.6115 16.4937 31.8634C17.5985 33.4513 19.769 33.6906 22.1041 33.8463C22.5211 32.9449 24.0575 33.019 25.0586 33.2548C23.8589 32.7781 22.7435 31.6224 21.8191 30.5995C20.7573 29.4259 19.6817 28.1669 19.6274 26.6329C21.6339 29.4256 23.2916 31.8645 26.9403 33.0929C29.7011 34.0218 32.9254 32.6672 35.0467 31.1727C35.927 30.5515 36.4524 29.566 37.0781 28.6638C39.4192 25.2854 40.5116 20.4632 40.2715 15.7893C40.1726 13.8617 40.1769 11.9407 39.5322 10.6439C38.8584 9.28787 36.5796 8.0747 35.2456 9.30123C34.9984 7.98257 36.3549 7.16706 37.9483 7.64159C36.8121 6.17057 35.6197 4.40301 34.0048 3.48883ZM39.2432 46.9808C41.4403 45.885 45.5454 44.0314 46.9228 46.9849C47.4312 48.0735 48.0275 49.9138 48.2908 51.0376C48.6627 52.6231 47.8876 55.9555 46.2632 56.4875C44.8284 56.9573 43.1543 56.9287 41.4261 56.5804C41.2226 56.4106 40.9961 56.1146 40.8377 55.8061C39.6037 55.7581 38.4482 55.8725 37.4734 56.3814C37.5658 57.297 36.9485 57.4439 36.3698 57.6325C35.9408 59.339 37.2281 61.5675 36.92 63.1235C36.7002 64.2321 35.3407 64.4035 34.3414 64.6109C34.3088 65.227 34.3852 65.7412 34.4534 66.2624C34.2249 67.107 33.2001 67.5878 32.2291 67.7056C29.0344 68.091 24.1836 68.2641 21.1107 67.1555C20.2532 65.0454 19.5777 62.479 18.8635 60.0695C15.8665 60.3906 13.4426 58.7721 11.1574 57.7118C10.3663 57.3438 9.2718 57.1411 8.97623 56.5093C8.68969 55.8976 8.80695 54.7253 8.73585 53.6179C8.55491 50.7896 8.39996 48.0615 7.65547 45.1655C7.32119 43.866 6.73854 42.7193 6.33207 41.4671C5.95638 40.3065 5.3 38.8723 5.12881 37.715C4.87497 35.9998 6.48489 35.9044 7.51433 35.1611C9.10569 34.0117 10.3548 33.3761 12.0783 32.3387C12.5888 32.0315 14.1281 31.2539 14.3032 30.8958C14.6513 30.1858 13.7058 29.1846 13.453 28.6281C13.0531 27.748 12.8445 27.0003 12.7872 26.1319C11.3415 25.9027 10.2455 25.0395 9.58347 24.0662C8.48837 22.4553 7.7289 19.4752 8.6764 17.2083C8.75071 17.0297 9.12128 16.6787 9.17595 16.4045C9.28378 15.8645 8.97303 15.1466 8.95371 14.5723C8.85416 11.6259 9.45062 9.08726 11.4277 8.19871C12.2304 4.99092 15.1031 3.92439 17.8097 2.33017C18.8214 1.73435 19.9366 1.35358 21.0884 0.928384C25.2203 -0.597147 31.5597 -0.309865 34.9889 2.29201C36.4429 3.39535 38.7672 5.72493 39.5985 7.41155C41.7943 11.8644 41.6383 19.3062 40.1025 24.7228C39.896 25.45 39.5966 26.519 39.1785 27.3925C38.887 28.0025 37.9809 29.2231 38.0909 29.7617C38.2042 30.3185 40.1568 31.8059 40.5755 32.2109C41.3294 32.9405 42.7617 33.909 42.8777 34.8297C43.0024 35.8095 42.4474 37.15 42.1662 38.0955C41.2262 41.2509 40.309 44.1677 39.2432 46.9808Z" fill="#231F20"/>
<path fill-rule="evenodd" clip-rule="evenodd" d="M24.585 25.1382C24.7041 24.979 25.3595 24.7373 26.2764 25.1802C26.2764 25.1802 25.1897 25.362 25.2801 27.1797L24.8272 27.0887C24.8272 27.0887 24.3592 25.4405 24.585 25.1382Z" fill="#D4D4D4"/>
<path fill-rule="evenodd" clip-rule="evenodd" d="M32.5251 40.7617C32.5251 41.0375 32.302 41.2612 32.0268 41.2612C31.7519 41.2612 31.5288 41.0375 31.5288 40.7617C31.5288 40.4858 31.7519 40.2618 32.0268 40.2618C32.302 40.2618 32.5251 40.4858 32.5251 40.7617Z" fill="#1D1919"/>
<path fill-rule="evenodd" clip-rule="evenodd" d="M33.0231 43.0786C33.0231 43.3544 32.8001 43.5781 32.5249 43.5781C32.2499 43.5781 32.0269 43.3544 32.0269 43.0786C32.0269 42.8027 32.2499 42.5787 32.5249 42.5787C32.8001 42.5787 33.0231 42.8027 33.0231 43.0786Z" fill="#1D1919"/>
<path d="M73.6321 23.1818H78.1918V38.3949C78.1918 39.8011 77.8757 41.0227 77.2436 42.0597C76.6186 43.0966 75.7486 43.8956 74.6335 44.4567C73.5185 45.0178 72.2223 45.2983 70.745 45.2983C69.4311 45.2983 68.2379 45.0675 67.1655 44.6058C66.1001 44.1371 65.255 43.4268 64.63 42.4751C64.005 41.5163 63.696 40.3125 63.7031 38.8636H68.2947C68.3089 39.4389 68.4261 39.9325 68.6463 40.3445C68.8736 40.7493 69.1825 41.0618 69.5732 41.282C69.9709 41.495 70.4396 41.6016 70.9794 41.6016C71.5476 41.6016 72.027 41.4808 72.4176 41.2393C72.8153 40.9908 73.1172 40.6286 73.3232 40.1527C73.5291 39.6768 73.6321 39.0909 73.6321 38.3949V23.1818ZM89.3778 45.3196C87.6946 45.3196 86.2457 44.9787 85.0312 44.2969C83.8239 43.608 82.8935 42.6349 82.2401 41.3778C81.5866 40.1136 81.2599 38.6186 81.2599 36.8928C81.2599 35.2095 81.5866 33.7322 82.2401 32.4609C82.8935 31.1896 83.8132 30.1989 84.9993 29.4886C86.1925 28.7784 87.5916 28.4233 89.1967 28.4233C90.2763 28.4233 91.2813 28.5973 92.2116 28.9453C93.1491 29.2862 93.9659 29.8011 94.6619 30.4901C95.3651 31.179 95.9119 32.0455 96.3026 33.0895C96.6932 34.1264 96.8885 35.3409 96.8885 36.733V37.9794H83.071V35.1669H92.6165C92.6165 34.5135 92.4744 33.9347 92.1903 33.4304C91.9063 32.9261 91.5121 32.532 91.0078 32.2479C90.5107 31.9567 89.9318 31.8111 89.2713 31.8111C88.5824 31.8111 87.9716 31.9709 87.4389 32.2905C86.9134 32.603 86.5014 33.0256 86.2031 33.5582C85.9048 34.0838 85.7521 34.6697 85.745 35.3161V37.9901C85.745 38.7997 85.8942 39.4993 86.1925 40.0888C86.4979 40.6783 86.9276 41.1328 87.4815 41.4524C88.0355 41.772 88.6925 41.9318 89.4524 41.9318C89.9567 41.9318 90.4183 41.8608 90.8374 41.7188C91.2564 41.5767 91.6151 41.3636 91.9134 41.0795C92.2116 40.7955 92.4389 40.4474 92.5952 40.0355L96.7926 40.3125C96.5795 41.321 96.1428 42.2017 95.4822 42.9545C94.8288 43.7003 93.9837 44.2827 92.9467 44.7017C91.9169 45.1136 90.7273 45.3196 89.3778 45.3196ZM104.388 35.5398V45H99.8501V28.6364H104.175V31.5234H104.367C104.729 30.5717 105.337 29.8189 106.189 29.2649C107.041 28.7038 108.075 28.4233 109.289 28.4233C110.425 28.4233 111.416 28.6719 112.261 29.169C113.107 29.6662 113.763 30.3764 114.232 31.2997C114.701 32.2159 114.935 33.3097 114.935 34.581V45H110.397V35.3906C110.404 34.3892 110.148 33.608 109.63 33.0469C109.112 32.4787 108.398 32.1946 107.489 32.1946C106.878 32.1946 106.338 32.326 105.869 32.5888C105.408 32.8516 105.045 33.2351 104.783 33.7393C104.527 34.2365 104.396 34.8366 104.388 35.5398ZM122.624 40.2912L122.635 34.8473H123.296L128.537 28.6364H133.747L126.705 36.8608H125.629L122.624 40.2912ZM118.512 45V23.1818H123.051V45H118.512ZM128.74 45L123.924 37.8729L126.95 34.6662L134.056 45H128.74ZM135.973 45V28.6364H140.512V45H135.973ZM138.253 26.527C137.578 26.527 136.999 26.3033 136.517 25.8558C136.041 25.4013 135.803 24.858 135.803 24.2259C135.803 23.6009 136.041 23.0646 136.517 22.6172C136.999 22.1626 137.578 21.9354 138.253 21.9354C138.928 21.9354 139.503 22.1626 139.979 22.6172C140.462 23.0646 140.703 23.6009 140.703 24.2259C140.703 24.858 140.462 25.4013 139.979 25.8558C139.503 26.3033 138.928 26.527 138.253 26.527ZM148.685 35.5398V45H144.147V28.6364H148.472V31.5234H148.664C149.026 30.5717 149.634 29.8189 150.486 29.2649C151.338 28.7038 152.371 28.4233 153.586 28.4233C154.722 28.4233 155.713 28.6719 156.558 29.169C157.403 29.6662 158.06 30.3764 158.529 31.2997C158.998 32.2159 159.232 33.3097 159.232 34.581V45H154.694V35.3906C154.701 34.3892 154.445 33.608 153.927 33.0469C153.408 32.4787 152.695 32.1946 151.786 32.1946C151.175 32.1946 150.635 32.326 150.166 32.5888C149.705 32.8516 149.342 33.2351 149.08 33.7393C148.824 34.2365 148.692 34.8366 148.685 35.5398ZM176.424 33.3026L172.269 33.5582C172.198 33.2031 172.046 32.8835 171.811 32.5994C171.577 32.3082 171.268 32.0774 170.884 31.907C170.508 31.7294 170.057 31.6406 169.531 31.6406C168.828 31.6406 168.235 31.7898 167.752 32.0881C167.269 32.3793 167.028 32.7699 167.028 33.2599C167.028 33.6506 167.184 33.9808 167.497 34.2507C167.809 34.5206 168.345 34.7372 169.105 34.9006L172.067 35.4972C173.658 35.8239 174.844 36.3494 175.625 37.0739C176.406 37.7983 176.797 38.75 176.797 39.929C176.797 41.0014 176.481 41.9425 175.849 42.7521C175.224 43.5618 174.365 44.1939 173.271 44.6484C172.184 45.0959 170.931 45.3196 169.51 45.3196C167.344 45.3196 165.618 44.8686 164.333 43.9666C163.054 43.0575 162.305 41.8217 162.085 40.2592L166.548 40.0249C166.683 40.6854 167.01 41.1896 167.529 41.5376C168.047 41.8786 168.711 42.049 169.521 42.049C170.316 42.049 170.955 41.8963 171.438 41.5909C171.928 41.2784 172.177 40.8771 172.184 40.3871C172.177 39.9751 172.003 39.6378 171.662 39.375C171.321 39.1051 170.796 38.8991 170.085 38.7571L167.252 38.1925C165.654 37.8729 164.464 37.3189 163.683 36.5305C162.909 35.7422 162.521 34.7372 162.521 33.5156C162.521 32.4645 162.806 31.5589 163.374 30.799C163.949 30.0391 164.755 29.4531 165.792 29.0412C166.836 28.6293 168.058 28.4233 169.457 28.4233C171.524 28.4233 173.15 28.8601 174.336 29.7337C175.529 30.6072 176.225 31.7969 176.424 33.3026Z" fill="white"/>
</svg>
