<svg width="223" height="60" viewBox="0 0 223 60" fill="none" xmlns="http://www.w3.org/2000/svg">
<g clip-path="url(#clip0_233_214)">
<path d="M63.2166 14.5335C62.8172 14.9335 62.6841 18.0002 62.6841 25.6446C62.6841 36.8891 62.4178 38.7557 60.554 39.7335C58.2907 40.9335 54.7404 39.7335 54.0304 37.5557C53.6754 36.4891 52.1665 36.0002 51.3677 36.6668C49.5038 38.2224 52.0334 41.9113 55.628 42.8891C59.622 44.0002 63.4385 42.6224 64.903 39.5557C65.7018 37.8668 65.7906 36.7557 65.7906 26.1335C65.7906 15.9557 65.7018 14.4891 65.0805 14.2668C64.1042 13.9113 63.8379 13.9113 63.2166 14.5335Z" fill="white"/>
<path d="M72.0035 14.8892C71.5154 15.378 71.116 16.0892 71.116 16.4447C71.116 16.8003 71.5154 17.5114 72.0035 18.0003C72.4917 18.4892 73.2017 18.8892 73.5568 18.8892C73.9118 18.8892 74.6218 18.4892 75.11 18.0003C75.5982 17.5114 75.9976 16.8003 75.9976 16.4447C75.9976 16.0892 75.5982 15.378 75.11 14.8892C74.6218 14.4003 73.9118 14.0003 73.5568 14.0003C73.2017 14.0003 72.4917 14.4003 72.0035 14.8892Z" fill="white"/>
<path d="M114.607 14.8892C114.118 15.378 113.719 16.0892 113.719 16.4447C113.719 16.8003 114.118 17.5114 114.607 18.0003C115.095 18.4892 115.805 18.8892 116.16 18.8892C116.515 18.8892 117.225 18.4892 117.713 18.0003C118.201 17.5114 118.601 16.8003 118.601 16.4447C118.601 16.0892 118.201 15.378 117.713 14.8892C117.225 14.4003 116.515 14.0003 116.16 14.0003C115.805 14.0003 115.095 14.4003 114.607 14.8892Z" fill="white"/>
<path d="M136.352 14.889C135.509 15.7334 135.464 16.3557 135.464 28.8446C135.464 42.8446 135.553 43.3334 137.683 42.6668C138.615 42.3557 138.66 42.2668 138.482 30.0001C138.393 23.2001 138.393 17.6446 138.438 17.689C138.482 17.7334 139.281 20.0001 140.257 22.6668C143.452 31.5112 147.491 41.5557 148.156 42.2223C148.911 42.9334 150.02 43.0668 150.864 42.5334C151.485 42.1334 157.698 27.0223 159.606 21.2001C160.272 19.2001 160.849 17.5557 160.893 17.5557C160.937 17.5557 160.893 23.1557 160.849 29.9557C160.671 42.3112 160.671 42.3557 161.647 42.6668C163.778 43.3334 163.866 42.889 163.866 28.6223V15.3334L162.757 14.6223C161.958 14.089 161.381 14.0001 160.449 14.3112C159.34 14.7112 158.852 15.689 155.568 23.8223C153.571 28.8001 151.485 34.3557 150.908 36.089C150.331 37.8668 149.798 39.3334 149.665 39.3334C149.532 39.3334 149.177 38.4446 148.867 37.3779C147.935 33.7779 140.302 15.1112 139.547 14.5334C138.526 13.7334 137.373 13.8668 136.352 14.889Z" fill="white"/>
<path d="M82.9648 16.978C82.7873 17.1113 82.6542 18.4002 82.6542 19.8224V22.4002L80.7903 22.5335C79.0596 22.6669 78.882 22.8002 78.7489 23.8669C78.6158 25.0669 78.6602 25.1113 80.6128 25.1113H82.6542V32.6669V40.2224L83.8968 41.5557C85.4056 43.2891 87.9352 43.7335 90.376 42.7113C91.7073 42.178 92.018 41.8224 91.8848 41.0224C91.7517 40.0891 91.5742 40.0002 89.3997 40.1335C88.0239 40.2224 86.737 40.0446 86.3819 39.7335C85.8938 39.3335 85.7606 37.6891 85.7606 32.178V25.1113H88.6896H91.5742L91.441 23.8669C91.3079 22.7113 91.1748 22.6669 88.5565 22.5335L85.7606 22.4002V20.0891C85.7606 18.8002 85.5388 17.5113 85.2281 17.2002C84.6512 16.6224 83.4086 16.4891 82.9648 16.978Z" fill="white"/>
<path d="M213.88 16.978C213.703 17.1113 213.57 18.4002 213.57 19.8224V22.4002L211.706 22.5335C209.975 22.6669 209.798 22.8002 209.664 23.8669C209.531 25.0669 209.576 25.1113 211.528 25.1113H213.57V32.6669V40.2224L214.812 41.5557C216.321 43.2891 218.851 43.7335 221.292 42.7113C222.623 42.178 222.933 41.8224 222.8 41.0224C222.667 40.0891 222.49 40.0002 220.315 40.1335C218.939 40.2224 217.652 40.0446 217.297 39.7335C216.809 39.3335 216.676 37.6891 216.676 32.178V25.1113H219.605H222.49L222.357 23.8669C222.223 22.7113 222.09 22.6669 219.472 22.5335L216.676 22.4002V20.0891C216.676 18.8002 216.454 17.5113 216.144 17.2002C215.567 16.6224 214.324 16.4891 213.88 16.978Z" fill="white"/>
<path d="M99.2961 22.3999C96.234 23.1554 94.6364 25.0221 94.6364 27.7777C94.6364 31.0221 96.4559 32.4443 102.403 33.7777C105.908 34.5777 107.062 35.3777 107.062 37.1554C107.062 40.7554 99.9174 41.8221 97.876 38.5332C96.8109 36.8443 96.0565 36.2666 95.0802 36.5332C93.7932 36.8888 93.9263 38.9777 95.3464 40.6221C97.521 43.2443 103.556 44.0443 107.151 42.1777C108.882 41.2888 110.169 39.0221 110.169 36.8888C110.169 33.6888 108.527 32.311 103.246 31.0666C98.9411 30.0888 97.7428 29.3777 97.7428 27.7777C97.7428 25.7332 99.6511 24.5332 102.403 24.7999C104.266 24.9777 104.799 25.2443 105.997 26.6666C107.062 27.9554 107.595 28.2666 108.305 27.9999C110.79 27.2443 108.26 23.4221 104.666 22.4888C102.491 21.9554 101.293 21.911 99.2961 22.3999Z" fill="white"/>
<path d="M176.514 22.2224C176.292 22.3113 175.538 22.4891 174.828 22.6224C174.162 22.8002 172.831 23.6446 171.854 24.4891C168.082 27.9113 167.638 35.8224 171.055 39.9557C172.964 42.2668 174.694 43.0224 178.067 43.0668C181.44 43.1113 183.481 42.178 185.079 39.778C186.321 37.9113 186.188 36.9335 184.635 36.7557C183.703 36.6224 183.304 36.8891 182.727 37.9557C181.262 40.8446 176.647 41.5113 174.206 39.2891C172.875 38.0446 171.854 35.8668 171.854 34.2224V33.1113H178.467C186.943 33.1113 187.209 32.9335 185.833 28.3113C184.946 25.4224 182.727 23.1557 180.064 22.4891C178.112 22.0002 177.357 21.9557 176.514 22.2224ZM181.662 26.4446C182.816 27.8224 183.526 29.7335 183.038 30.2224C182.549 30.7113 171.854 30.4446 171.854 29.9557C171.854 28.7557 173.452 26.2668 174.694 25.4668C176.869 24.1335 180.109 24.578 181.662 26.4446Z" fill="white"/>
<path d="M197.372 22.2224C197.15 22.3113 196.395 22.4891 195.685 22.6224C195.02 22.8002 193.688 23.6446 192.712 24.4891C188.94 27.9113 188.496 35.8224 191.913 39.9557C193.821 42.2668 195.552 43.0224 198.925 43.0668C202.298 43.1113 204.339 42.178 205.937 39.778C207.179 37.9113 207.046 36.9335 205.493 36.7557C204.561 36.6224 204.161 36.8891 203.585 37.9557C202.12 40.8446 197.505 41.5113 195.064 39.2891C193.733 38.0446 192.712 35.8668 192.712 34.2224V33.1113H199.324C207.8 33.1113 208.067 32.9335 206.691 28.3113C205.803 25.4224 203.585 23.1557 200.922 22.4891C198.969 22.0002 198.215 21.9557 197.372 22.2224ZM202.519 26.4446C203.673 27.8224 204.383 29.7335 203.895 30.2224C203.407 30.7113 192.712 30.4446 192.712 29.9557C192.712 28.7557 194.31 26.2668 195.552 25.4668C197.727 24.1335 200.966 24.578 202.519 26.4446Z" fill="white"/>
<path d="M72.536 22.978C72.1366 23.378 72.0034 26.1335 72.0034 32.7113C72.0034 42.5335 72.1809 43.3335 74.2223 42.6668C75.0655 42.4002 75.1099 42.0891 75.1099 32.6668C75.1099 24.2668 75.0211 22.9335 74.3998 22.7113C73.4235 22.3557 73.1572 22.3557 72.536 22.978Z" fill="white"/>
<path d="M115.139 22.978C114.74 23.378 114.606 26.1335 114.606 32.7113C114.606 42.5335 114.784 43.3335 116.825 42.6668C117.669 42.4002 117.713 42.0891 117.713 32.6668C117.713 24.2668 117.624 22.9335 117.003 22.7113C116.027 22.3557 115.76 22.3557 115.139 22.978Z" fill="white"/>
<g clip-path="url(#clip1_233_214)">
<path d="M1.76007 59.1304C1.60746 58.7933 1.4826 58.4897 1.4826 58.4557C1.4826 58.4217 0.951295 55.6147 0.890754 54.8933C0.626441 51.7439 0.209575 51.4423 0.325961 48.6344C0.396466 46.9334 0.161528 46.3532 0.661361 44.9622C1.69073 42.0976 2.44547 40.9704 3.78317 40.3C4.86839 39.7562 5.88656 39.8301 6.84221 40.522C7.09408 40.7044 7.93918 41.2789 8.7202 41.7987C9.50122 42.3185 10.4288 42.9487 10.7815 43.1991C11.1343 43.4496 11.7226 43.8109 12.0889 44.0022C12.7351 44.3395 12.759 44.3447 12.8901 44.1743C13.178 43.8 13.8731 42.7496 14.2489 42.2481C16.1314 39.7366 14.3585 40.0158 13.9154 39.8848C13.2188 39.6788 12.9254 39.377 12.2744 38.6105C10.7622 36.8301 10.0456 34.8492 9.93969 32.4016C9.81673 29.5593 10.1013 27.2671 11.3436 25.9625C11.8761 25.4033 13.0034 24.5913 14.0339 24.0244C14.9066 23.5444 20.2593 22.5411 20.729 22.7496C20.9637 22.8537 19.8 19.7639 20.4697 15.7466C20.6027 14.9485 21.5063 12.479 21.6018 12.3109C21.8375 11.896 25.722 10.5604 26.827 9.90849C28.0616 9.18012 30.7317 7.4256 30.9328 6.12067C31.3748 3.25304 31.4533 2.02761 31.6376 1.91994C31.9118 1.7597 33.7449 5.5564 32.5041 9.13639C32.2592 9.8429 31.0915 11.4833 30.5686 12.1694C30.192 12.6635 31.0098 12.8944 31.4802 13.6077C31.908 14.2564 32.1892 15.8423 32.2441 16.664C32.3002 17.5031 32.0359 19.2248 31.7992 19.5625C31.7033 19.6993 31.664 19.8337 31.7114 19.863C31.7585 19.8921 32.0776 19.8539 32.4205 19.7781C32.7634 19.7023 33.5067 19.5815 34.0723 19.5098C35.0791 19.3821 35.1151 19.3839 35.7984 19.595C36.8234 19.9117 41.809 21.1218 38.6277 35.1169C37.5736 39.7535 32.6551 45.8718 32.0366 45.3981L30.5137 44.2316L28.7585 46.8456C27.8627 47.7699 26.8968 48.6619 26.327 49.0911C25.428 49.7682 23.6293 50.8349 23.3864 50.8349C23.3239 50.8349 22.9695 50.981 22.599 51.1595C21.5277 51.6756 19.9232 52.0986 18.2236 52.2107C11.6426 52.639 14.1532 51.8408 8.70408 49.1901C8.27427 48.981 7.28491 50.0358 6.09246 51.1258C4.81943 52.2894 4.15114 53.175 3.64612 54.3677C3.47516 54.7715 3.20902 55.3909 3.0547 55.7442C2.63477 56.7054 2.28933 58.0355 2.23801 58.8887C2.2129 59.306 2.15753 59.6691 2.11496 59.6954C2.07238 59.7218 1.91268 59.4675 1.76007 59.1304ZM8.99494 47.3535C9.83843 47.1392 9.93078 47.0919 10.838 46.4099C11.4881 45.9212 11.891 45.0389 12.0639 44.9618C13.1957 44.4573 11.2191 44.0032 10.4801 43.5024C9.74106 43.0017 8.78007 42.6315 8.12541 42.1295C7.47075 41.6274 6.90388 41.236 6.8657 41.2596C6.82752 41.2833 6.79555 41.6202 6.79465 42.0084C6.79204 43.1405 6.6409 44.2765 6.42965 44.7518C6.32213 44.9937 6.21359 45.46 6.18844 45.7881C6.13018 46.548 6.30618 46.9134 6.93223 47.3325C7.45979 47.6856 7.67887 47.6879 8.99494 47.3535ZM39.5631 25.9116C39.2884 24.0582 39.5158 21.5094 38.0783 20.5816C34.7618 18.4411 34.3977 20.5637 34.1942 21.0328C33.8595 21.8045 33.6535 22.4358 33.9075 23.2842C34.688 25.8907 35.6865 28.1988 36.1604 30.0514C36.7044 32.1777 37.3039 33.5225 37.3639 35.1897C37.4065 36.3733 37.3953 36.4977 37.2219 36.7711C36.9754 37.1599 33.2505 38.1121 31.3748 38.6673C30.7307 38.8579 31.3012 40.2377 31.2275 40.6919C31.1537 41.1461 30.1455 43.6849 30.4697 44.1953C33.6692 49.2319 40.7442 33.8812 39.5631 25.9116ZM32.6713 38.2947C33.1718 38.1738 33.6397 38.0263 33.7111 37.9669C33.7826 37.9076 33.9641 37.8684 34.1146 37.8799C34.3838 37.9004 35.4379 37.567 35.5189 37.4357C35.5418 37.3987 36.4822 36.9058 36.2941 36.7806C36.1059 36.6554 32.4299 33.9408 31.9028 33.6648C25.8328 30.4854 22.6421 30.2666 20.6378 30.6722C17.2046 31.3671 14.2393 33.1159 13.8826 33.5473C13.7749 33.6775 19.2577 31.8385 23.1496 33.7707C23.8687 34.1277 25.3533 34.7411 26.4694 35.9416C27.489 37.0382 28.4187 38.1985 29.1504 38.3944C29.9438 38.6069 31.5695 38.5609 32.6713 38.2947ZM25.3534 25.1869C27.2753 24.8491 30.2528 20.8382 30.0211 20.4627C29.9898 20.4119 30.597 19.3995 30.4984 19.3797C26.9018 18.6593 26.9885 15.0617 26.9366 15.0296C26.8848 14.9975 21.634 17.5206 20.424 18.0461C19.3972 18.492 20.5708 21.1506 21.1899 22.8006C21.4653 23.5348 22.9819 24.5137 23.5922 24.9128C24.3143 25.385 25.1892 25.2158 25.3534 25.1869ZM29.4953 12.9461C30.5331 12.1244 33.2971 8.01194 33.0038 6.34305C31.809 -0.456183 31.294 3.7531 31.2173 4.35987C31.1856 4.61118 31.0951 5.16777 31.0162 5.59675C30.9374 6.02574 30.8369 6.64512 30.7929 6.97316C30.7489 7.30121 30.6273 7.87932 30.5226 8.25783C30.4179 8.63634 30.2526 9.26554 30.1552 9.65607C30.0579 10.0466 29.7301 11.0086 29.4269 11.7938C29.1236 12.5791 28.8755 13.2402 28.8755 13.2631C28.8755 13.3778 29.0859 13.2701 29.4953 12.9461Z" fill="url(#paint0_linear_233_214)"/>
<path fill-rule="evenodd" clip-rule="evenodd" d="M2.03218 58.9154C3.65451 52.1636 5.12233 51.4069 8.98501 48.9041C8.13522 48.419 6.04391 46.8109 6.04937 45.955C6.06399 43.4559 6.47521 39.1 3.73176 40.9105C-1.47381 44.3459 0.409849 55.2678 2.03218 58.9154Z" fill="url(#paint1_linear_233_214)"/>
<path fill-rule="evenodd" clip-rule="evenodd" d="M7.74023 48.0391C10.0338 49.78 12.0609 51.319 13.4997 52.1353C27.5295 52.8478 31.0328 45.0566 31.2877 38.6692C30.0389 38.7268 27.911 38.4196 26.7642 36.6836C23.9005 37.6278 15.2305 40.2758 15.0797 40.8709C14.2971 43.9583 11.9706 46.4519 7.74023 48.0391Z" fill="url(#paint2_linear_233_214)"/>
<path fill-rule="evenodd" clip-rule="evenodd" d="M32.0872 45.4375C40.5613 39.1013 39.4706 26.4136 39.6075 25.7639C39.9555 24.1122 37.9095 18.5166 35.4518 19.5433C31.3598 21.2526 38.3314 30.9446 37.3961 36.2602C37.2012 37.3682 33.8238 38.185 31.5279 38.543C31.2631 38.5843 31.4982 42.1589 30.3464 43.8042C30.1815 44.0397 31.9322 45.5533 32.0872 45.4375Z" fill="url(#paint3_linear_233_214)"/>
<path fill-rule="evenodd" clip-rule="evenodd" d="M33.269 44.5677C44.12 33.858 38.6271 14.7391 34.8386 20.3232C40.042 19.2662 40.8698 36.8096 33.269 44.5677Z" fill="url(#paint4_linear_233_214)"/>
<path fill-rule="evenodd" clip-rule="evenodd" d="M12.6647 44.7176C12.8654 44.4455 9.11989 43.1571 6.85615 41.1096C6.60515 40.8825 6.56467 44.422 6.32747 45.8978C6.1801 46.8148 7.73004 47.738 8.0843 47.853C8.37817 47.9484 11.8407 45.8344 12.6647 44.7176Z" fill="url(#paint5_linear_233_214)"/>
<path fill-rule="evenodd" clip-rule="evenodd" d="M9.6944 34.5177C8.39231 27.8881 10.7616 23.9899 20.2556 22.6205C20.3016 22.7664 30.8068 19.2199 34.5026 19.1958C33.5009 20.7948 34.5137 24.7429 35.7307 27.9886C35.7307 27.9886 26.8371 30.3199 9.6944 34.5177Z" fill="url(#paint6_linear_233_214)"/>
<path fill-rule="evenodd" clip-rule="evenodd" d="M14.3089 33.461C15.4355 33.0555 18.6519 32.0783 22.4943 33.4221C25.126 34.3424 26.6361 36.6628 27.7721 37.5553C30.448 39.6574 35.3877 37.3222 36.2812 37.3363C36.6483 37.3421 29.6502 31.0252 24.3741 30.7056C17.2814 30.276 12.8544 33.9846 14.3089 33.461Z" fill="url(#paint7_linear_233_214)"/>
<path fill-rule="evenodd" clip-rule="evenodd" d="M31.6151 2.04692C31.576 4.20278 30.9009 9.34858 28.7277 12.8654C27.7336 14.474 32.4355 10.7422 32.9417 7.53455C33.2201 5.77027 31.6473 0.32878 31.6151 2.04692Z" fill="url(#paint8_linear_233_214)"/>
<path fill-rule="evenodd" clip-rule="evenodd" d="M24.5578 25.5629C26.9171 24.3527 29.0666 22.7611 30.4289 19.8057C30.6595 19.3054 29.3054 19.7907 28.2645 18.3065C27.234 16.8369 27.4772 15.3454 26.5945 15.4647C23.8365 15.8375 20.1592 18.4501 20.1592 18.4501C20.1592 18.4501 20.3707 21.3089 21.1161 22.4708C22.6532 24.8666 24.5578 25.5629 24.5578 25.5629Z" fill="url(#paint9_linear_233_214)"/>
<path opacity="0.552238" fill-rule="evenodd" clip-rule="evenodd" d="M28.2097 18.0401C28.9058 20.5769 32.7739 20.1172 31.9652 15.1792C31.6166 15.6913 30.7456 18.503 28.2097 18.0401Z" fill="url(#paint10_linear_233_214)"/>
<path fill-rule="evenodd" clip-rule="evenodd" d="M24.2244 25.3516C22.9218 24.4618 21.7974 23.3547 21.0771 22.1836C20.3568 21.0125 20.0405 15.04 21.2525 13.5556C21.9185 11.9231 24.2763 10.3453 26.8952 9.64844C21.917 15.4473 23.5301 24.2364 27.9355 23.3817C28.1556 23.339 24.6603 25.3648 24.2244 25.3516Z" fill="url(#paint11_linear_233_214)"/>
<path fill-rule="evenodd" clip-rule="evenodd" d="M6.81844 40.9351C7.79107 41.6582 11.9866 44.9204 12.9113 44.4041C10.7637 49.6781 5.10915 45.2102 6.81844 40.9351Z" fill="url(#paint12_linear_233_214)"/>
<path d="M24.1152 11.3139C23.1073 11.904 21.8954 12.5641 21.6548 13.1609C20.8473 14.8651 20.5446 17.9235 20.7905 17.7479C23.1868 16.0361 25.9612 15.5615 26.9707 14.6447C29.9622 11.928 31.1236 6.31178 30.495 7.14428C28.46 9.83927 25.1551 10.705 24.1152 11.3139ZM8.43393 49.0266C8.43393 49.0266 5.6043 47.0605 5.65645 46.4297C6.0898 41.1881 5.16375 40.8823 4.69705 40.9378C4.1332 41.005 1.20315 42.8632 0.631557 48.11C0.216782 51.9172 1.71432 57.8656 1.94244 58.1875C3.12291 55.0004 2.66235 52.4353 8.43393 49.0266ZM39.3473 25.8051C39.2065 21.8756 36.8515 19.1739 35.252 19.8066C34.5734 20.0751 34.1178 21.9047 34.3561 23.0392C34.5674 24.0454 36.0073 27.9393 36.1109 28.2685C36.3557 29.0468 38.0084 33.8171 37.7146 36.1092C37.4571 38.1182 31.6601 38.8133 31.6601 38.8133C31.6601 38.8133 31.5627 40.4486 31.3628 41.5535C31.1172 42.9118 30.6301 43.9778 30.6301 43.9778C30.6301 43.9778 31.8922 45.1589 31.9432 45.1576C31.9942 45.1563 39.8871 40.8703 39.3473 25.8051ZM33.2961 37.9773C33.7042 37.8625 36.1133 37.2226 35.9842 37.1375C35.0902 36.5484 34.0728 35.8069 32.3688 34.4756C22.9088 27.0843 14.3162 33.3096 14.4855 33.253C16.0563 32.7282 17.7152 32.4316 20.0197 32.5863C21.876 32.7108 24.794 33.6561 27.3501 36.717C28.3009 37.8555 29.3797 38.6281 33.2961 37.9773ZM29.0763 21.9338C29.3625 21.6851 30.3573 19.8012 30.1782 19.7574C27.6678 19.1442 27.4233 18.0284 27.1776 16.8144C26.9475 15.6773 26.983 15.5151 26.5074 15.6729C22.665 16.9479 21.6021 17.6485 21.0142 18.1387C20.0932 18.9066 20.7392 20.9699 21.0994 21.7899C21.6013 22.9328 23.4467 25.001 24.3052 25.1675C25.5575 25.4105 28.517 22.8332 29.0763 21.9338ZM31.8689 14.9714C31.6607 14.1158 30.9917 13.0139 30.8134 13.0139C30.6455 13.0139 28.8679 14.3958 28.4087 14.8772C27.3666 15.97 27.8745 17.9502 29.0305 18.6294C30.9871 19.779 32.4239 17.2516 31.8689 14.9714ZM30.3937 11.699C31.2497 10.84 32.3877 9.42995 32.6903 7.28715C32.8089 6.44731 32.8777 5.70857 32.3578 4.04808C32.2373 3.66323 31.8709 2.55641 31.8573 2.70223C31.5868 5.58146 31.1905 8.77851 29.3199 12.1763C28.7328 13.2428 29.0485 13.0489 30.3937 11.699ZM10.3175 28.8475C9.29768 33.1446 12.0001 38.7881 14.1893 39.1098C16.3055 39.4207 22.3723 37.5806 25.5541 36.6918C26.3877 36.459 26.8362 36.5804 24.9919 35.0284C22.1006 33.0537 19.767 32.7995 17.439 33.0649C14.8711 33.3577 12.9469 34.1212 13.1269 33.9698C14.3043 32.9795 16.4013 31.2085 20.4528 30.4066C22.2137 30.058 24.9313 30.0274 28.2122 31.3147C32.2818 32.9114 34.4015 35.2795 36.1221 36.082C36.7348 36.3678 36.9536 36.2349 37.1957 35.5207C37.6013 34.3241 35.1358 26.8527 34.2426 24.674C32.8795 21.3492 34.4699 19.7601 34.1222 19.837C32.4362 20.2104 30.9494 21.2991 29.703 22.4201C26.6563 25.1604 24.7994 25.7441 24.5238 25.7206C23.6537 25.6462 22.0257 24.0993 21.4342 23.3137C21.0568 22.8125 14.3021 24.1222 12.3103 25.8606C12.2647 25.9004 10.7278 26.8906 10.3175 28.8475ZM8.15325 47.5558C10.3811 46.6168 12.5623 44.6213 12.3736 44.5883C11.217 44.3863 6.95135 41.45 6.95429 41.4804C7.10081 42.9957 6.77207 44.3573 6.62209 45.8592C6.55954 46.4856 7.39066 47.4559 8.15325 47.5558ZM15.3421 40.9874C14.9159 41.9419 14.4709 45.695 8.31195 48.1035C8.13354 48.1733 13.4733 51.8412 13.7639 51.854C31.3977 52.6317 31.2482 39.1419 31.0142 38.8018C30.9803 38.7526 29.4721 38.8053 28.3039 38.2485C28.2148 38.206 27.4224 37.7957 26.9499 37.1777C26.7897 36.9681 26.7647 36.8541 26.1709 37.0275C23.4225 37.8299 15.2171 40.7874 15.3421 40.9874ZM9.84873 34.4076C6.69981 23.3547 17.7504 22.842 19.5025 22.4164C20.8574 22.0873 20.5622 21.9593 20.2765 20.6719C19.8753 18.8643 20.0003 17.2887 20.3442 15.5998C20.6694 14.0027 20.8371 13.1951 21.524 12.3943C22.0775 11.7488 25.197 10.2726 25.9703 9.90005C29.2658 8.3122 30.5249 6.56691 30.8922 5.19413C31.1511 4.22637 31.53 1.84106 31.3597 0.136087C31.3178 -0.283568 31.5873 0.374001 32.9282 4.55904C33.6133 6.69745 33.2759 9.26506 31.1151 11.5832C30.8217 11.8981 30.964 11.9604 31.3586 12.6155C32.1785 13.9765 32.6318 15.6784 32.5041 16.9166C32.3994 17.931 31.9678 18.8902 32.5852 18.8156C32.6744 18.8049 35.4014 18.3901 37.2681 19.582C38.5322 20.3892 40.3331 21.9365 39.8656 28.3998C38.842 42.553 31.9584 45.6331 31.9101 45.6348C31.7936 45.6388 30.5058 44.2955 30.4295 44.4537C26.4825 52.6449 18.3381 52.3506 13.7958 52.4367C12.8876 52.4539 9.11135 49.2597 8.79306 49.4782C4.77293 52.2382 3.65685 52.9275 2.10676 59.9815C2.04735 59.8696 -0.0428764 56.1449 0.0438875 48.654C0.114975 42.5165 3.45276 39.6201 4.93659 39.7871C6.73796 39.9899 7.64199 40.934 10.1789 42.6084C10.6318 42.9073 12.2317 43.8792 12.5958 43.8703C13.5029 43.8488 14.1217 42.1748 14.2697 41.0909C14.4191 39.9977 14.5634 40.2619 13.7141 39.9682C12.6432 39.598 10.7962 37.5836 9.84873 34.4076Z" fill="#2C3B54"/>
<path fill-rule="evenodd" clip-rule="evenodd" d="M15.4472 40.8847C17.1007 39.9783 26.4872 37.0303 26.5715 36.8452C26.633 36.7101 15.5614 41.2854 13.0539 39.5894C12.9027 39.4872 13.6395 40.031 14.3057 40.1683C14.3525 40.1779 14.3493 41.9363 13.7182 42.9312C13.5412 43.2102 15.0632 41.0952 15.4472 40.8847Z" fill="url(#paint13_linear_233_214)"/>
<path fill-rule="evenodd" clip-rule="evenodd" d="M30.7419 13.0138C29.713 13.7353 28.2944 14.7434 28.0043 15.5209C27.8332 15.9794 27.7177 14.2404 28.8858 13.2044C29.5439 12.6207 30.9524 12.8661 30.7419 13.0138Z" fill="url(#paint14_linear_233_214)"/>
<path fill-rule="evenodd" clip-rule="evenodd" d="M29.3583 18.8221C30.5253 19.1716 31.4267 18.4556 31.9209 16.9129C31.9793 16.7306 31.7765 18.264 31.0512 18.834C30.3598 19.3774 29.1123 18.7484 29.3583 18.8221Z" fill="url(#paint15_linear_233_214)"/>
<path fill-rule="evenodd" clip-rule="evenodd" d="M32.3206 20.4144C33.9741 19.508 35.6671 19.6467 37.1101 19.712C38.0679 19.7554 35.3057 18.6333 32.1676 18.8087C31.8325 19.0954 30.8365 20.7675 29.4328 22.4609C29.222 22.7151 31.9367 20.6249 32.3206 20.4144Z" fill="url(#paint16_linear_233_214)"/>
<path fill-rule="evenodd" clip-rule="evenodd" d="M16.5824 23.9995C17.5533 23.7988 18.771 23.4673 19.577 23.3857C20.249 23.3176 21.0911 22.9374 21.738 23.6364C21.3778 23.1404 20.6889 22.1386 20.4743 21.4824C20.6697 22.2534 19.7963 22.3621 19.5792 22.3968C14.6975 23.1716 11.7607 24.4922 10.2791 26.9481C13.0856 24.767 16.3991 24.0374 16.5824 23.9995Z" fill="url(#paint17_linear_233_214)"/>
</g>
</g>
<defs>
<linearGradient id="paint0_linear_233_214" x1="24.7831" y1="11.0672" x2="32.4606" y2="37.2166" gradientUnits="userSpaceOnUse">
<stop/>
<stop offset="0.271152" stop-color="white"/>
<stop offset="0.732747" stop-color="white"/>
<stop offset="1"/>
</linearGradient>
<linearGradient id="paint1_linear_233_214" x1="10.2017" y1="44.2845" x2="1.11115" y2="59.5882" gradientUnits="userSpaceOnUse">
<stop stop-color="#3B3C3D"/>
<stop offset="1" stop-color="white"/>
</linearGradient>
<linearGradient id="paint2_linear_233_214" x1="18.6315" y1="53.2301" x2="23.9241" y2="18.948" gradientUnits="userSpaceOnUse">
<stop/>
<stop offset="0.456982" stop-color="white"/>
<stop offset="0.738284" stop-color="white"/>
<stop offset="1" stop-color="white"/>
</linearGradient>
<linearGradient id="paint3_linear_233_214" x1="21.5691" y1="45.4438" x2="16.4672" y2="23.8146" gradientUnits="userSpaceOnUse">
<stop/>
<stop offset="0.662721" stop-color="white"/>
<stop offset="0.75" stop-color="white"/>
<stop offset="1"/>
</linearGradient>
<linearGradient id="paint4_linear_233_214" x1="47.489" y1="25.4274" x2="29.5167" y2="29.3409" gradientUnits="userSpaceOnUse">
<stop stop-color="white"/>
<stop offset="1" stop-color="white" stop-opacity="0"/>
</linearGradient>
<linearGradient id="paint5_linear_233_214" x1="9.49503" y1="41.6929" x2="6.29658" y2="46.8553" gradientUnits="userSpaceOnUse">
<stop stop-color="white"/>
<stop offset="0.378421"/>
<stop offset="0.774204"/>
<stop offset="1" stop-color="white"/>
</linearGradient>
<linearGradient id="paint6_linear_233_214" x1="18.365" y1="18.478" x2="20.9029" y2="33.3752" gradientUnits="userSpaceOnUse">
<stop stop-color="white"/>
<stop offset="1" stop-color="white" stop-opacity="0"/>
</linearGradient>
<linearGradient id="paint7_linear_233_214" x1="22.8305" y1="32.5884" x2="26.5087" y2="39.9296" gradientUnits="userSpaceOnUse">
<stop/>
<stop offset="0.341448" stop-color="white"/>
<stop offset="0.71198" stop-color="white"/>
<stop offset="1"/>
</linearGradient>
<linearGradient id="paint8_linear_233_214" x1="29.9174" y1="7.96156" x2="33.8898" y2="7.48811" gradientUnits="userSpaceOnUse">
<stop/>
<stop offset="0.5" stop-color="white"/>
<stop offset="0.75" stop-color="white"/>
<stop offset="1" stop-color="white"/>
</linearGradient>
<linearGradient id="paint9_linear_233_214" x1="27.3355" y1="23.6454" x2="22.5338" y2="17.3181" gradientUnits="userSpaceOnUse">
<stop/>
<stop offset="0.341448" stop-color="white"/>
<stop offset="0.71198" stop-color="white"/>
<stop offset="1"/>
</linearGradient>
<linearGradient id="paint10_linear_233_214" x1="33.2581" y1="22.3148" x2="29.3008" y2="16.692" gradientUnits="userSpaceOnUse">
<stop stop-color="white"/>
<stop offset="1" stop-color="white" stop-opacity="0"/>
</linearGradient>
<linearGradient id="paint11_linear_233_214" x1="13.1482" y1="22.8835" x2="26.4307" y2="18.7051" gradientUnits="userSpaceOnUse">
<stop stop-color="white"/>
<stop offset="1" stop-color="white" stop-opacity="0"/>
</linearGradient>
<linearGradient id="paint12_linear_233_214" x1="13.5242" y1="45.6973" x2="6.79808" y2="40.964" gradientUnits="userSpaceOnUse">
<stop stop-color="white"/>
<stop offset="1" stop-color="white" stop-opacity="0"/>
</linearGradient>
<linearGradient id="paint13_linear_233_214" x1="15.7621" y1="39.3833" x2="16.6102" y2="42.3253" gradientUnits="userSpaceOnUse">
<stop stop-color="#212A3A"/>
<stop offset="1" stop-color="#404E67" stop-opacity="0"/>
</linearGradient>
<linearGradient id="paint14_linear_233_214" x1="27.8972" y1="15.5964" x2="31.2327" y2="14.7992" gradientUnits="userSpaceOnUse">
<stop stop-color="#212A3A"/>
<stop offset="1" stop-color="#404E67" stop-opacity="0"/>
</linearGradient>
<linearGradient id="paint15_linear_233_214" x1="31.0837" y1="19.0614" x2="29.4854" y2="18.8346" gradientUnits="userSpaceOnUse">
<stop stop-color="#212A3A"/>
<stop offset="1" stop-color="#404E67" stop-opacity="0"/>
</linearGradient>
<linearGradient id="paint16_linear_233_214" x1="31.0132" y1="20.0917" x2="37.7276" y2="18.799" gradientUnits="userSpaceOnUse">
<stop stop-color="#212A3A"/>
<stop offset="1" stop-color="#404E67" stop-opacity="0"/>
</linearGradient>
<linearGradient id="paint17_linear_233_214" x1="16.093" y1="23.4814" x2="11.5718" y2="25.6458" gradientUnits="userSpaceOnUse">
<stop stop-color="#212A3A"/>
<stop offset="1" stop-color="#404E67" stop-opacity="0"/>
</linearGradient>
<clipPath id="clip0_233_214">
<rect width="223" height="60" fill="white"/>
</clipPath>
<clipPath id="clip1_233_214">
<rect width="40" height="60" fill="white"/>
</clipPath>
</defs>
</svg>
