<svg width="166" height="45" viewBox="0 0 166 45" fill="none" xmlns="http://www.w3.org/2000/svg">
<g clip-path="url(#clip0_233_31)">
<path d="M43.7405 8.94043V35.7474H38.2617V8.94043H43.7405Z" fill="white"/>
<path d="M66.1022 17.6732V35.8069C66.1022 41.4356 61.7103 44.896 56.3358 44.896C51.1548 44.896 47.2839 41.6881 46.9117 37.1584L52.3756 37.1881C52.5989 39.1188 54.2961 39.9505 56.5293 39.9505C58.6434 39.9505 60.6086 38.8218 60.6086 35.8812V33.5643C59.2091 34.4703 57.4226 35.0049 55.4276 35.0049C50.4253 35.0049 46.4204 30.9653 46.4204 26.3168C46.4204 20.9109 50.4401 17.2871 55.4276 17.2871C57.4375 17.2871 59.2091 17.8218 60.6086 18.7277V17.7475L66.1022 17.6732ZM60.6235 28.3515V23.9406C59.5069 22.3218 57.9585 21.7871 56.4251 21.7871C53.7304 21.7871 51.8545 23.5841 51.8545 26.3168C51.8545 28.3218 53.7304 30.5198 56.4251 30.5198C57.9585 30.5049 59.5069 29.9554 60.6235 28.3515Z" fill="white"/>
<path d="M87.9575 26.4949C87.9575 32.0791 83.8187 36.0593 78.2655 36.0593C72.6676 36.0593 68.5288 32.0791 68.5288 26.4949C68.5288 20.9553 72.6676 16.9009 78.2655 16.9009C83.8187 16.9009 87.9575 20.9553 87.9575 26.4949ZM82.6723 26.4949C82.6723 23.8662 80.9453 21.7425 78.2655 21.7425C75.5559 21.7425 73.8289 23.8662 73.8289 26.4949C73.8289 29.1979 75.5559 31.2177 78.2655 31.2177C80.9304 31.2029 82.6723 29.1979 82.6723 26.4949Z" fill="white"/>
<path d="M121.976 17.7032V35.718L116.602 35.7477V34.723C115.202 35.6289 113.416 36.1933 111.421 36.1933C106.418 36.1933 102.414 31.9606 102.414 26.7477C102.414 21.5051 106.433 17.2725 111.421 17.2725C113.431 17.2725 115.202 17.8368 116.602 18.7428V17.718L121.976 17.7032ZM116.602 29.5101V23.9853C115.47 22.3814 113.892 21.9358 112.314 21.9358C109.56 21.9358 107.654 24.1339 107.654 26.7626C107.654 29.3616 109.56 31.5596 112.314 31.5596C113.892 31.5447 115.47 31.114 116.602 29.5101Z" fill="white"/>
<path d="M144.07 25.9604V35.7475H138.785V26.599C138.785 23.6584 137.311 22.099 134.691 22.099C133.321 22.099 131.817 22.8861 130.522 24.401V35.7475H125.118V17.7327H130.522V19.099C131.996 17.9257 133.708 17.2871 135.748 17.2871C140.571 17.2871 144.07 20.6732 144.07 25.9604Z" fill="white"/>
<path d="M35.7605 35.7327H30.1776L26.5449 22.2624L18.7288 35.7327H12.4907L24.5499 14.8812L22.6145 7.63371L6.34203 35.7476H0.104004L20.7237 0.104004H26.1876L28.5845 8.95549H34.2271L30.3711 15.6387L35.7605 35.7327Z" fill="white"/>
<path d="M165.895 8.94063V35.7476H160.417V34.7228C159.017 35.6287 157.231 36.1931 155.236 36.1931C150.233 36.1931 146.229 31.9604 146.229 26.7179C146.229 21.505 150.248 17.2723 155.236 17.2723C157.246 17.2723 159.017 17.8367 160.417 18.7426V8.92578L165.895 8.94063ZM160.417 29.5248V23.9555C159.27 22.3367 157.677 21.8911 156.099 21.8911C153.33 21.8911 151.41 24.104 151.41 26.7179C151.41 29.3763 153.33 31.5891 156.099 31.5891C157.677 31.5891 159.27 31.1436 160.417 29.5248Z" fill="white"/>
<path d="M101.431 22.2774C100.24 22.4259 97.4409 22.5596 95.8032 24.817V35.7626H90.3989V17.7626H95.8032V19.114C97.0389 18.0596 98.8999 17.4358 101.431 17.6883V22.2774Z" fill="white"/>
</g>
<defs>
<clipPath id="clip0_233_31">
<rect width="166" height="45" fill="white"/>
</clipPath>
</defs>
</svg>
