<svg width="181" height="45" viewBox="0 0 181 45" fill="none" xmlns="http://www.w3.org/2000/svg">
<path d="M71.6237 0.768482C71.1285 0.273353 70.5096 0.314614 70.5096 0.314614C70.5096 0.314614 56.8833 1.06762 49.8483 1.23267C48.3113 1.26361 46.7744 1.29456 45.2581 1.29456V14.9209C44.5979 14.6218 43.979 14.302 43.3291 14.0029C43.3291 9.77364 43.3291 1.3255 43.3291 1.3255C39.9561 1.35645 32.983 1.06762 32.983 1.06762C32.983 1.06762 16.5406 0.252722 14.7767 0.0876788C13.6317 0.0257876 12.1566 -0.139255 10.2587 0.252722C9.24776 0.448711 6.35951 1.10888 4.00765 3.36791C-1.23246 8.02006 0.108513 15.4573 0.273556 16.5713C0.469544 17.9123 1.05751 21.7083 3.94576 24.9885C9.24776 31.5077 20.7182 31.3427 20.7182 31.3427C20.7182 31.3427 22.1314 34.7158 24.2873 37.7897C27.2065 41.6166 30.1876 44.639 33.0655 45C40.3687 45 55.0059 45 55.0059 45C55.0059 45 56.4191 45 58.2861 43.7931C59.9262 42.8132 61.3601 41.0699 61.3601 41.0699C61.3601 41.0699 62.8661 39.4607 64.9601 35.7989C65.6202 34.6848 66.136 33.5708 66.6002 32.5599C66.6002 32.5599 73.0162 18.9645 73.0162 5.69914C72.8305 1.71748 71.8506 0.995416 71.6237 0.768482ZM13.8793 24.4728C10.8672 23.4928 9.58816 22.3066 9.58816 22.3066C9.58816 22.3066 7.36009 20.7387 6.24605 17.6854C4.34805 12.5072 6.081 9.40229 6.081 9.40229C6.081 9.40229 7.06094 6.78224 10.5681 5.92608C12.1773 5.50315 14.1681 5.56504 14.1681 5.56504C14.1681 5.56504 14.983 12.4762 16.0042 16.4991C16.8604 19.9032 18.8821 25.5352 18.8821 25.5352C18.8821 25.5352 15.8392 25.1639 13.8793 24.4728ZM48.7549 36.9542C48.7549 36.9542 48.0328 38.6252 46.4649 38.7593C45.7738 38.7903 45.2581 38.6252 45.2581 38.6252C45.2581 38.6252 45.2271 38.6252 44.6391 38.3983L31.5389 32.0132C31.5389 32.0132 30.2598 31.353 30.0638 30.208C29.8059 29.259 30.3939 28.114 30.3939 28.114L36.7171 15.1066C36.7171 15.1066 37.2741 13.9925 38.1303 13.6006C38.1922 13.5696 38.3881 13.4665 38.6563 13.4355C39.6053 13.2086 40.7503 13.7656 40.7503 13.7656L53.6237 19.9857C53.6237 19.9857 55.0987 20.6458 55.3876 21.8527C55.6145 22.7089 55.3257 23.4928 55.1916 23.8539C54.4283 25.6178 48.7549 36.9542 48.7549 36.9542Z" fill="white"/>
<path d="M37.264 27.5256C36.315 27.5256 35.4588 28.2167 35.2628 29.1347C35.0359 30.0528 35.4898 31.0327 36.315 31.4557C37.2021 31.9095 38.3471 31.6516 38.966 30.8367C39.554 30.0218 39.4611 28.8665 38.77 28.1548L41.5551 22.4608C41.7202 22.4608 41.978 22.4918 42.2772 22.3989C42.7723 22.2958 43.0921 21.976 43.0921 21.976C43.5872 22.172 44.103 22.3989 44.629 22.6981C45.1861 22.9972 45.7121 23.2551 46.1969 23.5542C46.3001 23.6161 46.3929 23.6883 46.527 23.7812C46.723 23.9462 46.919 24.1422 47.084 24.4413C47.311 25.1015 46.8571 26.1743 46.8571 26.1743C46.5992 27.0614 44.7322 30.8883 44.7322 30.8883C43.7832 30.8574 42.9683 31.4763 42.6691 32.3324C42.37 33.2814 42.8032 34.3336 43.7213 34.8184C44.6393 35.3032 45.7534 35.0144 46.3413 34.1995C46.9293 33.4155 46.8674 32.3015 46.2073 31.5794C46.4342 31.1565 46.6302 30.7233 46.8674 30.2694C47.4554 29.0625 48.4353 26.7313 48.4353 26.7313C48.5385 26.5353 49.0955 25.5244 48.7654 24.2453C48.4663 22.9353 47.2903 22.3164 47.2903 22.3164C45.8772 21.3983 43.8863 20.5525 43.8863 20.5525C43.8863 20.5525 43.8863 20.0574 43.7522 19.7376C43.6181 19.3766 43.4222 19.1496 43.2984 19.0155C43.8554 17.9015 44.3815 16.7875 44.9385 15.6425C44.4434 15.4155 43.9895 15.1886 43.5253 14.9204C42.9683 16.0654 42.4113 17.2104 41.8542 18.3554C41.0703 18.3554 40.3482 18.7473 39.9872 19.4385C39.5952 20.1605 39.6571 21.0786 40.2141 21.7284L37.264 27.5256Z" fill="white"/>
<path d="M94.6783 22.5439H106.138V37.5112C104.271 38.0992 102.538 38.5221 100.898 38.7903C99.2582 39.0172 97.5871 39.1513 95.8851 39.1513C91.5321 39.1513 88.19 37.8723 85.9 35.3244C83.6101 32.7662 82.4651 29.1043 82.4651 24.2872C82.4651 19.635 83.8061 16.0041 86.4571 13.384C89.1081 10.7639 92.8112 9.48486 97.5253 9.48486C100.475 9.48486 103.353 10.0728 106.107 11.2488L104.075 16.1278C101.981 15.0757 99.7843 14.5599 97.4943 14.5599C94.8433 14.5599 92.7493 15.447 91.1402 17.2109C89.531 18.9748 88.747 21.368 88.747 24.38C88.747 27.5261 89.4072 29.9192 90.676 31.549C91.9551 33.1892 93.8221 34.035 96.2771 34.035C97.5562 34.035 98.8662 33.9009 100.176 33.643V27.619H94.7092V22.5439H94.6783Z" fill="white"/>
<path d="M111.255 10.9799C111.255 9.00973 112.338 8.02979 114.535 8.02979C116.732 8.02979 117.815 9.00973 117.815 10.9799C117.815 11.9289 117.557 12.651 117 13.1771C116.443 13.7031 115.628 13.961 114.545 13.961C112.358 13.9301 111.255 12.9501 111.255 10.9799ZM117.537 38.7587H111.513V16.6842H117.537V38.7587Z" fill="white"/>
<path d="M132.143 34.3652C133.195 34.3652 134.464 34.1382 135.939 33.674V38.1611C134.433 38.8213 132.597 39.172 130.4 39.172C127.976 39.172 126.243 38.5531 125.129 37.3359C124.015 36.1291 123.489 34.293 123.489 31.8689V21.2339H120.611V18.6758L123.922 16.6746L125.655 12.0225H129.523V16.7056H135.712V21.2236H129.523V31.8379C129.523 32.6941 129.75 33.313 130.245 33.7359C130.709 34.1692 131.359 34.3652 132.143 34.3652Z" fill="white"/>
<path d="M149.369 39.1506C145.8 39.1506 143.046 38.1707 141.055 36.2005C139.054 34.2303 138.043 31.4555 138.043 27.8864C138.043 24.1833 138.961 21.3363 140.828 19.3042C142.664 17.2721 145.254 16.2612 148.492 16.2612C151.608 16.2612 154.032 17.1483 155.765 18.9122C157.498 20.6761 158.385 23.1415 158.385 26.2773V29.1862H144.139C144.201 30.8882 144.697 32.2291 145.645 33.1781C146.594 34.1271 147.935 34.6223 149.637 34.6223C150.978 34.6223 152.227 34.4882 153.403 34.1993C154.578 33.9415 155.827 33.4773 157.106 32.8893V37.5415C156.054 38.0675 154.909 38.4595 153.733 38.7174C152.546 39.0165 151.113 39.1506 149.369 39.1506ZM148.523 20.542C147.244 20.542 146.233 20.934 145.511 21.7489C144.789 22.5638 144.366 23.7191 144.263 25.1839H152.711C152.68 23.7088 152.288 22.5638 151.535 21.7489C150.813 20.9753 149.803 20.542 148.523 20.542Z" fill="white"/>
<path d="M176.292 38.7593L175.116 35.7472H174.951C173.94 37.0263 172.888 37.9134 171.805 38.3982C170.722 38.8934 169.35 39.1512 167.617 39.1512C165.492 39.1512 163.821 38.5633 162.604 37.3461C161.386 36.1289 160.768 34.3959 160.768 32.1679C160.768 29.8057 161.582 28.1037 163.223 26.9896C164.863 25.8756 167.318 25.2567 170.629 25.1535L174.456 25.0194V24.0395C174.456 21.8114 173.311 20.6974 171.021 20.6974C169.257 20.6974 167.194 21.2234 164.801 22.3065L162.8 18.2424C165.358 16.9014 168.174 16.2412 171.248 16.2412C174.198 16.2412 176.488 16.9014 178.056 18.1702C179.624 19.4492 180.418 21.4091 180.418 24.0704V38.7799H176.292V38.7593ZM174.497 28.5369L172.176 28.5988C170.443 28.6607 169.133 28.9598 168.277 29.5478C167.421 30.1358 166.998 31.0229 166.998 32.1988C166.998 33.9008 167.978 34.757 169.917 34.757C171.33 34.757 172.434 34.365 173.259 33.5501C174.115 32.7352 174.507 31.683 174.507 30.3421V28.5369H174.497Z" fill="white"/>
</svg>
