<svg width="91" height="60" viewBox="0 0 91 60" fill="none" xmlns="http://www.w3.org/2000/svg">
<g clip-path="url(#clip0_233_145)">
<path d="M45.377 0C35.9844 0 28.0234 6.40256 25.556 15.0773C23.4116 10.4761 18.7646 7.25255 13.412 7.25255C6.05096 7.25255 0 13.3368 0 20.7382C0 28.1397 6.05096 34.2267 13.412 34.2267C18.7646 34.2267 23.4116 31.0012 25.556 26.3992C28.0234 35.0746 35.9844 41.4792 45.377 41.4792C54.7001 41.4792 62.6206 35.1712 65.151 26.5936C67.3351 31.0911 71.9246 34.2267 77.2011 34.2267C84.5621 34.2267 90.6158 28.1397 90.6158 20.7382C90.6158 13.3368 84.5621 7.25255 77.2011 7.25255C71.9246 7.25255 67.3351 10.3861 65.151 14.8829C62.6206 6.30598 54.7001 0 45.377 0ZM45.377 7.91641C52.4673 7.91641 58.1315 13.6089 58.1315 20.7382C58.1315 27.8675 52.4673 33.5628 45.377 33.5628C38.2867 33.5628 32.6253 27.8675 32.6253 20.7382C32.6253 13.6089 38.2867 7.91642 45.377 7.91641ZM13.412 15.169C16.5184 15.169 18.9536 17.6147 18.9536 20.7382C18.9536 23.8617 16.5184 26.3103 13.412 26.3103C10.3055 26.3103 7.87314 23.8617 7.87314 20.7382C7.87314 17.6147 10.3055 15.169 13.412 15.169ZM77.2011 15.169C80.3076 15.169 82.7427 17.6147 82.7427 20.7382C82.7427 23.8617 80.3076 26.3103 77.2011 26.3103C74.0947 26.3103 71.6623 23.8617 71.6623 20.7382C71.6623 17.6147 74.0947 15.169 77.2011 15.169Z" fill="white"/>
<path d="M9.43664 47.735C9.17467 47.735 9.06152 47.8854 9.06152 48.1488V59.063C9.06152 59.3264 9.17467 59.4749 9.43664 59.4749H9.73709C9.99907 59.4749 10.1468 59.3264 10.1468 59.063V49.9999L16.0721 59.2461C16.0979 59.2865 16.1259 59.3134 16.154 59.3431C16.1625 59.3531 16.1683 59.3636 16.1777 59.3724C16.2029 59.3955 16.2306 59.4076 16.2578 59.4218C16.2729 59.4298 16.2847 59.4416 16.3016 59.4474C16.3133 59.4514 16.3258 59.449 16.338 59.4522C16.3798 59.463 16.4225 59.4742 16.4728 59.4742H16.7714C17.0334 59.4742 17.1465 59.3257 17.1465 59.0622V48.1487C17.1465 47.8852 17.0334 47.7349 16.7714 47.7349H16.4728C16.2108 47.7349 16.0612 47.8852 16.0612 48.1487V57.2121L10.1359 47.966C10.1157 47.9344 10.0913 47.9152 10.0685 47.8908C10.0001 47.7935 9.89176 47.7352 9.73714 47.7352L9.43664 47.735ZM80.5819 47.8852C80.3199 47.8852 80.4325 48.0356 80.4325 48.299V52.0249C80.4325 52.4012 80.4688 52.6639 80.4688 52.6639H80.4325C80.4325 52.6639 79.7211 51.0087 77.7376 51.0087C75.5669 51.0087 74.0318 52.7397 74.1067 55.2986C74.1067 57.8575 75.4913 59.6269 77.6993 59.6269C79.8326 59.6269 80.5436 57.8949 80.5436 57.8949H80.5818C80.5818 57.8949 80.5071 58.1211 80.5071 58.4222V59.0612C80.5071 59.3246 80.6567 59.4383 80.9187 59.4383H81.1809C81.4428 59.4383 81.5541 59.288 81.5541 59.0245V48.299C81.5541 48.0356 81.1424 47.8852 80.8804 47.8852H80.5819ZM51.5017 47.9237C51.2398 47.9237 51.3907 48.0741 51.3907 48.3375V57.5562C51.3907 59.3624 52.5871 59.5885 53.2608 59.5885C53.5602 59.5885 53.6723 59.4381 53.6723 59.1747V58.9111C53.6723 58.6477 53.5225 58.5357 53.3354 58.5357C52.9612 58.4981 52.4759 58.3846 52.4759 57.331V48.3375C52.4759 48.074 52.0642 47.9237 51.8022 47.9237L51.5017 47.9237ZM38.067 48.9014C37.805 48.9014 37.6555 49.0518 37.6555 49.3152V51.2725V52.2136V56.4649C37.6555 58.4217 38.7416 59.5135 40.538 59.5135C40.8748 59.5135 40.9859 59.4015 40.9859 59.1381V58.9111C40.9859 58.61 40.8748 58.5349 40.538 58.4973C39.9018 58.4597 38.7407 58.234 38.7407 56.3148V52.1751H40.4251C40.6871 52.1751 40.8366 52.0632 40.8366 51.7998V51.6862C40.8366 51.4228 40.6871 51.2725 40.4251 51.2725H38.7407V49.3152C38.7407 49.0518 38.6294 48.9014 38.3674 48.9014H38.067ZM23.1609 51.0088C20.9154 51.0088 19.1176 52.6277 19.0802 55.3371C19.0802 57.896 20.9523 59.6636 23.3849 59.6636C24.6948 59.6636 25.6672 59.0996 26.1163 58.7609C26.3035 58.6104 26.3415 58.4218 26.2292 58.2336L26.1163 58.0469C26.004 57.8211 25.8182 57.7828 25.5937 57.9334C25.2194 58.2344 24.4692 58.6859 23.4213 58.6859C21.7372 58.6859 20.2775 57.481 20.2402 55.3737H26.1909C26.4155 55.3737 26.6025 55.1857 26.6025 54.9599C26.6025 52.5892 25.369 51.0088 23.1609 51.0088ZM46.4123 51.0088C43.9796 51.0088 42.1086 52.8149 42.0712 55.3737C42.0712 57.9326 43.9432 59.702 46.3759 59.702C47.8729 59.702 48.8831 58.9861 49.2948 58.6474C49.482 58.4593 49.5181 58.3093 49.4059 58.0835L49.2948 57.9334C49.1451 57.7076 48.9949 57.6693 48.7704 57.8198C48.3961 58.1585 47.6107 58.6859 46.4505 58.6859C44.6541 58.6859 43.2311 57.3305 43.2311 55.3737C43.2311 53.3793 44.6541 52.025 46.4505 52.025C47.4236 52.025 48.1339 52.514 48.5082 52.7775C48.7327 52.9279 48.9193 52.9282 49.069 52.7024L49.1819 52.5139C49.3691 52.2881 49.3308 52.1004 49.1436 51.9499C48.732 51.6112 47.8344 51.0088 46.4123 51.0088ZM59.0622 51.0088C56.667 51.0088 54.7211 52.8527 54.7211 55.2987C54.7211 57.7823 56.667 59.6636 59.0622 59.6636C61.4574 59.6636 63.4033 57.7823 63.4033 55.2987C63.4033 52.8527 61.4574 51.0088 59.0622 51.0088ZM34.8512 51.1352C34.7596 51.1499 34.6714 51.2119 34.5872 51.3127L33.0722 53.1272L31.9396 54.4857L30.2225 52.4296L29.292 51.3127C29.2077 51.2118 29.1123 51.1565 29.0134 51.148C28.9144 51.14 28.8114 51.1768 28.7111 51.2615L28.4817 51.4555C28.281 51.6249 28.2915 51.8122 28.4598 52.014L29.9748 53.8284L31.2313 55.3353L29.3921 57.5379C29.3902 57.5395 29.3893 57.5419 29.3885 57.5427L28.4598 58.6541C28.2914 58.8558 28.3101 59.0688 28.5108 59.2381L28.7402 59.4304C28.9409 59.5997 29.1236 59.5571 29.292 59.3552L30.8051 57.5408L31.9396 56.1823L33.6567 58.2402C33.6575 58.2418 33.6595 58.2434 33.6604 58.2442L34.5872 59.3574C34.7556 59.5592 34.9674 59.5761 35.1681 59.4068L35.3975 59.2145C35.5982 59.0452 35.5878 58.8579 35.4194 58.6561L33.9044 56.8398L32.6479 55.3348L34.4871 53.1304C34.489 53.1288 34.4898 53.1272 34.4907 53.1256L35.4194 52.0142C35.5878 51.8124 35.5691 51.5994 35.3684 51.4301L35.139 51.2379C35.0386 51.1532 34.9429 51.1204 34.8512 51.1352ZM65.6121 51.1975C65.3501 51.1975 65.237 51.3478 65.237 51.6113V56.465C65.237 58.61 66.8089 59.6637 68.755 59.6637C70.7011 59.6637 72.273 58.61 72.273 56.465V51.6112C72.3104 51.3478 72.1617 51.1975 71.8997 51.1975H71.5993C71.3373 51.1975 71.1877 51.3478 71.1877 51.6112V56.1648C71.1877 57.4442 70.3643 58.6109 68.755 58.6109C67.1831 58.6109 66.3222 57.4442 66.3222 56.1648V51.6112C66.3222 51.3478 66.1727 51.1975 65.9107 51.1975L65.6121 51.1975ZM23.1227 51.95C24.3203 51.95 25.3676 52.8152 25.4425 54.5462H20.2784C20.5404 52.8528 21.738 51.95 23.1227 51.95ZM59.0622 52.0251C60.8212 52.0251 62.2434 53.4173 62.2434 55.2988C62.2434 57.2556 60.8212 58.686 59.0622 58.686C57.3032 58.686 55.8802 57.218 55.8428 55.2988C55.8428 53.4549 57.3032 52.0251 59.0622 52.0251ZM77.8122 52.0251C79.5712 52.0251 80.4325 53.6439 80.4325 55.3373C80.4325 57.708 79.1587 58.686 77.774 58.686C76.2396 58.686 75.1929 57.3693 75.1555 55.3373C75.1555 53.2299 76.3527 52.0251 77.8122 52.0251Z" fill="white"/>
</g>
<defs>
<clipPath id="clip0_233_145">
<rect width="91" height="60" fill="white"/>
</clipPath>
</defs>
</svg>
